  0
SECTION
  2
HEADER
  9
$ACADVER
  1
AC1014
  9
$ACADMAINTVER
 70
     9
  9
$DWGCODEPAGE
  3
ANSI_936
  9
$INSBASE
 10
0.0
 20
0.0
 30
0.0
  9
$EXTMIN
 10
1.000000000000000E+20
 20
1.000000000000000E+20
 30
1.000000000000000E+20
  9
$EXTMAX
 10
-1.000000000000000E+20
 20
-1.000000000000000E+20
 30
-1.000000000000000E+20
  9
$LIMMIN
 10
0.0
 20
0.0
  9
$LIMMAX
 10
12.0
 20
9.0
  9
$ORTHOMODE
 70
     0
  9
$REGENMODE
 70
     1
  9
$FILLMODE
 70
     1
  9
$QTEXTMODE
 70
     0
  9
$MIRRTEXT
 70
     1
  9
$DRAGMODE
 70
     2
  9
$LTSCALE
 40
1.0
  9
$OSMODE
 70
    37
  9
$ATTMODE
 70
     1
  9
$TEXTSIZE
 40
0.2
  9
$TRACEWID
 40
0.05
  9
$TEXTSTYLE
  7
STANDARD
  9
$CLAYER
  8
0
  9
$CELTYPE
  6
BYLAYER
  9
$CECOLOR
 62
   256
  9
$CELTSCALE
 40
1.0
  9
$DELOBJ
 70
     1
  9
$DISPSILH
 70
     0
  9
$DIMSCALE
 40
1.0
  9
$DIMASZ
 40
0.18
  9
$DIMEXO
 40
0.0625
  9
$DIMDLI
 40
0.38
  9
$DIMRND
 40
0.0
  9
$DIMDLE
 40
0.0
  9
$DIMEXE
 40
0.18
  9
$DIMTP
 40
0.0
  9
$DIMTM
 40
0.0
  9
$DIMTXT
 40
0.18
  9
$DIMCEN
 40
0.09
  9
$DIMTSZ
 40
0.0
  9
$DIMTOL
 70
     0
  9
$DIMLIM
 70
     0
  9
$DIMTIH
 70
     1
  9
$DIMTOH
 70
     1
  9
$DIMSE1
 70
     0
  9
$DIMSE2
 70
     0
  9
$DIMTAD
 70
     0
  9
$DIMZIN
 70
     0
  9
$DIMBLK
  1

  9
$DIMASO
 70
     1
  9
$DIMSHO
 70
     1
  9
$DIMPOST
  1

  9
$DIMAPOST
  1

  9
$DIMALT
 70
     0
  9
$DIMALTD
 70
     2
  9
$DIMALTF
 40
25.4
  9
$DIMLFAC
 40
1.0
  9
$DIMTOFL
 70
     0
  9
$DIMTVP
 40
0.0
  9
$DIMTIX
 70
     0
  9
$DIMSOXD
 70
     0
  9
$DIMSAH
 70
     0
  9
$DIMBLK1
  1

  9
$DIMBLK2
  1

  9
$DIMSTYLE
  2
STANDARD
  9
$DIMCLRD
 70
     0
  9
$DIMCLRE
 70
     0
  9
$DIMCLRT
 70
     0
  9
$DIMTFAC
 40
1.0
  9
$DIMGAP
 40
0.09
  9
$DIMJUST
 70
     0
  9
$DIMSD1
 70
     0
  9
$DIMSD2
 70
     0
  9
$DIMTOLJ
 70
     1
  9
$DIMTZIN
 70
     0
  9
$DIMALTZ
 70
     0
  9
$DIMALTTZ
 70
     0
  9
$DIMFIT
 70
     3
  9
$DIMUPT
 70
     0
  9
$DIMUNIT
 70
     2
  9
$DIMDEC
 70
     4
  9
$DIMTDEC
 70
     4
  9
$DIMALTU
 70
     2
  9
$DIMALTTD
 70
     2
  9
$DIMTXSTY
  7
STANDARD
  9
$DIMAUNIT
 70
     0
  9
$LUNITS
 70
     2
  9
$LUPREC
 70
     4
  9
$SKETCHINC
 40
0.1
  9
$FILLETRAD
 40
0.5
  9
$AUNITS
 70
     0
  9
$AUPREC
 70
     0
  9
$MENU
  1
.
  9
$ELEVATION
 40
0.0
  9
$PELEVATION
 40
0.0
  9
$THICKNESS
 40
0.0
  9
$LIMCHECK
 70
     0
  9
$CHAMFERA
 40
0.0
  9
$CHAMFERB
 40
0.0
  9
$CHAMFERC
 40
0.0
  9
$CHAMFERD
 40
0.0
  9
$SKPOLY
 70
     0
  9
$TDCREATE
 40
2459727.559396794
  9
$TDUPDATE
 40
2459727.559396794
  9
$TDINDWG
 40
0.0000000116
  9
$TDUSRTIMER
 40
0.0000000116
  9
$USRTIMER
 70
     1
  9
$ANGBASE
 50
0.0
  9
$ANGDIR
 70
     0
  9
$PDMODE
 70
     0
  9
$PDSIZE
 40
0.0
  9
$PLINEWID
 40
0.0
  9
$COORDS
 70
     1
  9
$SPLFRAME
 70
     0
  9
$SPLINETYPE
 70
     6
  9
$SPLINESEGS
 70
     8
  9
$ATTDIA
 70
     0
  9
$ATTREQ
 70
     1
  9
$HANDLING
 70
     1
  9
$HANDSEED
  5
231
  9
$SURFTAB1
 70
     6
  9
$SURFTAB2
 70
     6
  9
$SURFTYPE
 70
     6
  9
$SURFU
 70
     6
  9
$SURFV
 70
     6
  9
$UCSNAME
  2

  9
$UCSORG
 10
0.0
 20
0.0
 30
0.0
  9
$UCSXDIR
 10
1.0
 20
0.0
 30
0.0
  9
$UCSYDIR
 10
0.0
 20
1.0
 30
0.0
  9
$PUCSNAME
  2

  9
$PUCSORG
 10
0.0
 20
0.0
 30
0.0
  9
$PUCSXDIR
 10
1.0
 20
0.0
 30
0.0
  9
$PUCSYDIR
 10
0.0
 20
1.0
 30
0.0
  9
$USERI1
 70
     0
  9
$USERI2
 70
     0
  9
$USERI3
 70
     0
  9
$USERI4
 70
     0
  9
$USERI5
 70
     0
  9
$USERR1
 40
0.0
  9
$USERR2
 40
0.0
  9
$USERR3
 40
0.0
  9
$USERR4
 40
0.0
  9
$USERR5
 40
0.0
  9
$WORLDVIEW
 70
     1
  9
$SHADEDGE
 70
     3
  9
$SHADEDIF
 70
    70
  9
$TILEMODE
 70
     1
  9
$MAXACTVP
 70
    64
  9
$PINSBASE
 10
0.0
 20
0.0
 30
0.0
  9
$PLIMCHECK
 70
     0
  9
$PEXTMIN
 10
1.000000000000000E+20
 20
1.000000000000000E+20
 30
1.000000000000000E+20
  9
$PEXTMAX
 10
-1.000000000000000E+20
 20
-1.000000000000000E+20
 30
-1.000000000000000E+20
  9
$PLIMMIN
 10
0.0
 20
0.0
  9
$PLIMMAX
 10
12.0
 20
9.0
  9
$UNITMODE
 70
     0
  9
$VISRETAIN
 70
     1
  9
$PLINEGEN
 70
     0
  9
$PSLTSCALE
 70
     1
  9
$TREEDEPTH
 70
  3020
  9
$PICKSTYLE
 70
     1
  9
$CMLSTYLE
  2
STANDARD
  9
$CMLJUST
 70
     0
  9
$CMLSCALE
 40
1.0
  9
$PROXYGRAPHICS
 70
     1
  9
$MEASUREMENT
 70
     1
  0
ENDSEC
  0
SECTION
  2
CLASSES
  0
CLASS
  1
ACDBDICTIONARYWDFLT
  2
AcDbDictionaryWithDefault
  3
ObjectDBX Classes
 90
        0
280
     0
281
     0
  0
CLASS
  1
VISUALSTYLE
  2
AcDbVisualStyle
  3
ObjectDBX Classes
 90
     4095
280
     0
281
     0
  0
CLASS
  1
MATERIAL
  2
AcDbMaterial
  3
ObjectDBX Classes
 90
     1153
280
     0
281
     0
  0
CLASS
  1
SCALE
  2
AcDbScale
  3
ObjectDBX Classes
 90
     1153
280
     0
281
     0
  0
CLASS
  1
TABLESTYLE
  2
AcDbTableStyle
  3
ObjectDBX Classes
 90
     4095
280
     0
281
     0
  0
CLASS
  1
MLEADERSTYLE
  2
AcDbMLeaderStyle
  3
ACDB_MLEADERSTYLE_CLASS
 90
     4095
280
     0
281
     0
  0
CLASS
  1
SUN
  2
AcDbSun
  3
SCENEOE
 90
     1153
280
     0
281
     0
  0
CLASS
  1
DICTIONARYVAR
  2
AcDbDictionaryVar
  3
ObjectDBX Classes
 90
        0
280
     0
281
     0
  0
CLASS
  1
XRECORD
  2
AcDbXrecord
  3
ObjectDBX Classes
 90
        0
280
     0
281
     0
  0
CLASS
  1
LWPOLYLINE
  2
AcDbPolyline
  3
ObjectDBX Classes
 90
        0
280
     0
281
     1
  0
CLASS
  1
HATCH
  2
AcDbHatch
  3
ObjectDBX Classes
 90
        0
280
     0
281
     1
  0
CLASS
  1
ACDBPLACEHOLDER
  2
AcDbPlaceHolder
  3
ObjectDBX Classes
 90
        0
280
     0
281
     0
  0
CLASS
  1
LAYOUT
  2
AcDbLayout
  3
ObjectDBX Classes
 90
        0
280
     0
281
     0
  0
ENDSEC
  0
SECTION
  2
TABLES
  0
TABLE
  2
VPORT
  5
8
102
{ACAD_XDICTIONARY
360
226
102
}
330
0
100
AcDbSymbolTable
 70
     1
  0
VPORT
  5
29
330
8
100
AcDbSymbolTableRecord
100
AcDbViewportTableRecord
  2
*ACTIVE
 70
     0
 10
0.0
 20
0.0
 11
1.0
 21
1.0
 12
0.0
 22
0.0
 13
0.0
 23
0.0
 14
0.5
 24
0.5
 15
0.5
 25
0.5
 16
0.0
 26
0.0
 36
1.0
 17
0.0
 27
0.0
 37
-1000.0
 40
747.1319654378582
 41
1.758620689655172
 42
50.0
 43
1453.34192648356
 44
1937.236799035463
 50
0.0
 51
0.0
 71
     0
 72
   100
 73
     1
 74
     3
 75
     0
 76
     0
 77
     0
 78
     0
  0
ENDTAB
  0
TABLE
  2
LTYPE
  5
5
330
0
100
AcDbSymbolTable
 70
     1
  0
LTYPE
  5
14
330
5
100
AcDbSymbolTableRecord
100
AcDbLinetypeTableRecord
  2
BYBLOCK
 70
     0
  3

 72
    65
 73
     0
 40
0.0
  0
LTYPE
  5
15
330
5
100
AcDbSymbolTableRecord
100
AcDbLinetypeTableRecord
  2
BYLAYER
 70
     0
  3

 72
    65
 73
     0
 40
0.0
  0
LTYPE
  5
16
330
5
100
AcDbSymbolTableRecord
100
AcDbLinetypeTableRecord
  2
CONTINUOUS
 70
     0
  3
Solid line
 72
    65
 73
     0
 40
0.0
  0
ENDTAB
  0
TABLE
  2
LAYER
  5
2
330
0
100
AcDbSymbolTable
 70
     3
  0
LAYER
  5
10
330
2
100
AcDbSymbolTableRecord
100
AcDbLayerTableRecord
  2
0
 70
     0
 62
     7
  6
CONTINUOUS
  0
LAYER
  5
6E
330
2
100
AcDbSymbolTableRecord
100
AcDbLayerTableRecord
  2
PROFILEEDGES
 70
     0
 62
     7
  6
CONTINUOUS
  0
LAYER
  5
6F
330
2
100
AcDbSymbolTableRecord
100
AcDbLayerTableRecord
  2
SECTIONCUTEDGES
 70
     0
 62
     7
  6
CONTINUOUS
  0
ENDTAB
  0
TABLE
  2
STYLE
  5
3
330
0
100
AcDbSymbolTable
 70
     1
  0
STYLE
  5
11
330
3
100
AcDbSymbolTableRecord
100
AcDbTextStyleTableRecord
  2
STANDARD
 70
     0
 40
0.0
 41
1.0
 50
0.0
 71
     0
 42
0.2
  3
txt
  4

  0
ENDTAB
  0
TABLE
  2
VIEW
  5
6
330
0
100
AcDbSymbolTable
 70
     0
  0
ENDTAB
  0
TABLE
  2
UCS
  5
7
330
0
100
AcDbSymbolTable
 70
     0
  0
ENDTAB
  0
TABLE
  2
APPID
  5
9
330
0
100
AcDbSymbolTable
 70
     2
  0
APPID
  5
12
330
9
100
AcDbSymbolTableRecord
100
AcDbRegAppTableRecord
  2
ACAD
 70
     0
  0
APPID
  5
230
330
9
100
AcDbSymbolTableRecord
100
AcDbRegAppTableRecord
  2
ACAD_MLEADERVER
 70
     0
  0
ENDTAB
  0
TABLE
  2
DIMSTYLE
  5
A
330
0
100
AcDbSymbolTable
 70
     1
  0
DIMSTYLE
105
27
330
A
100
AcDbSymbolTableRecord
100
AcDbDimStyleTableRecord
  2
STANDARD
 70
     0
  3

  4

  5

  6

  7

 40
1.0
 41
0.18
 42
0.0625
 43
0.38
 44
0.18
 45
0.0
 46
0.0
 47
0.0
 48
0.0
140
0.18
141
0.09
142
0.0
143
25.4
144
1.0
145
0.0
146
1.0
147
0.09
 71
     0
 72
     0
 73
     1
 74
     1
 75
     0
 76
     0
 77
     0
 78
     0
170
     0
171
     2
172
     0
173
     0
174
     0
175
     0
176
     0
177
     0
178
     0
270
     2
271
     4
272
     4
273
     2
274
     2
340
11
275
     0
280
     0
281
     0
282
     0
283
     1
284
     0
285
     0
286
     0
287
     3
288
     0
  0
ENDTAB
  0
TABLE
  2
BLOCK_RECORD
  5
1
330
0
100
AcDbSymbolTable
 70
     0
  0
BLOCK_RECORD
  5
1F
330
1
100
AcDbSymbolTableRecord
100
AcDbBlockTableRecord
  2
*MODEL_SPACE
  0
BLOCK_RECORD
  5
1B
330
1
100
AcDbSymbolTableRecord
100
AcDbBlockTableRecord
  2
*PAPER_SPACE
  0
ENDTAB
  0
ENDSEC
  0
SECTION
  2
BLOCKS
  0
BLOCK
  5
20
330
1F
100
AcDbEntity
  8
0
100
AcDbBlockBegin
  2
*MODEL_SPACE
 70
     0
 10
0.0
 20
0.0
 30
0.0
  3
*MODEL_SPACE
  1

  0
ENDBLK
  5
21
330
1F
100
AcDbEntity
  8
0
100
AcDbBlockEnd
  0
BLOCK
  5
1C
330
1B
100
AcDbEntity
 67
     1
  8
0
100
AcDbBlockBegin
  2
*PAPER_SPACE
 70
     0
 10
0.0
 20
0.0
 30
0.0
  3
*PAPER_SPACE
  1

  0
ENDBLK
  5
1D
330
1B
100
AcDbEntity
 67
     1
  8
0
100
AcDbBlockEnd
  0
ENDSEC
  0
SECTION
  2
ENTITIES
  0
LINE
  5
70
330
1F
100
AcDbEntity
  8
0
100
AcDbLine
 10
-468.7864429672317
 20
-84.81168230038368
 30
0.0
 11
-378.7864429672317
 21
-84.81168230038368
 31
0.0
  0
LINE
  5
71
330
1F
100
AcDbEntity
  8
0
100
AcDbLine
 10
-378.7864429672317
 20
-84.81168230038368
 30
0.0
 11
-378.7864429672317
 21
-114.8116823003837
 31
0.0
  0
LINE
  5
72
330
1F
100
AcDbEntity
  8
0
100
AcDbLine
 10
-378.7864429672317
 20
-219.8116823003837
 30
0.0
 11
-468.7864429672317
 21
-219.8116823003837
 31
0.0
  0
LINE
  5
73
330
1F
100
AcDbEntity
  8
0
100
AcDbLine
 10
-258.9864429672318
 20
-219.8116823003837
 30
0.0
 11
-348.9864429672317
 21
-219.8116823003837
 31
0.0
  0
LINE
  5
74
330
1F
100
AcDbEntity
  8
0
100
AcDbLine
 10
-348.9864429672317
 20
-219.8116823003837
 30
0.0
 11
-348.9864429672317
 21
-184.8116823003837
 31
0.0
  0
LINE
  5
75
330
1F
100
AcDbEntity
  8
0
100
AcDbLine
 10
-443.7864429672317
 20
-215.8116823003837
 30
0.0
 11
-403.7864429672317
 21
-215.8116823003837
 31
0.0
  0
LINE
  5
76
330
1F
100
AcDbEntity
  8
0
100
AcDbLine
 10
-403.7864429672317
 20
-215.8116823003837
 30
0.0
 11
-403.7864429672317
 21
-212.8116823003837
 31
0.0
  0
LINE
  5
77
330
1F
100
AcDbEntity
  8
0
100
AcDbLine
 10
-403.7864429672317
 20
-212.8116823003837
 30
0.0
 11
-443.7864429672317
 21
-212.8116823003837
 31
0.0
  0
LINE
  5
78
330
1F
100
AcDbEntity
  8
0
100
AcDbLine
 10
-443.7864429672317
 20
-215.8116823003837
 30
0.0
 11
-443.7864429672317
 21
-212.8116823003837
 31
0.0
  0
LINE
  5
79
330
1F
100
AcDbEntity
  8
0
100
AcDbLine
 10
-323.9864429672318
 20
-215.8116823003837
 30
0.0
 11
-283.9864429672318
 21
-215.8116823003837
 31
0.0
  0
LINE
  5
7A
330
1F
100
AcDbEntity
  8
0
100
AcDbLine
 10
-323.9864429672318
 20
-215.8116823003837
 30
0.0
 11
-323.9864429672318
 21
-212.8116823003837
 31
0.0
  0
LINE
  5
7B
330
1F
100
AcDbEntity
  8
0
100
AcDbLine
 10
-283.9864429672318
 20
-212.8116823003837
 30
0.0
 11
-323.9864429672318
 21
-212.8116823003837
 31
0.0
  0
LINE
  5
7C
330
1F
100
AcDbEntity
  8
0
100
AcDbLine
 10
-283.9864429672318
 20
-215.8116823003837
 30
0.0
 11
-283.9864429672318
 21
-212.8116823003837
 31
0.0
  0
LINE
  5
7D
330
1F
100
AcDbEntity
  8
0
100
AcDbLine
 10
-468.7864429672317
 20
-219.8116823003837
 30
0.0
 11
-468.7864429672317
 21
-184.8116823003837
 31
0.0
  0
LINE
  5
7E
330
1F
100
AcDbEntity
  8
0
100
AcDbLine
 10
-465.7864429672317
 20
-114.8116823003837
 30
0.0
 11
-468.7864429672317
 21
-114.8116823003837
 31
0.0
  0
LINE
  5
7F
330
1F
100
AcDbEntity
  8
0
100
AcDbLine
 10
-468.7864429672317
 20
-134.8116823003837
 30
0.0
 11
-465.7864429672317
 21
-134.8116823003837
 31
0.0
  0
LINE
  5
80
330
1F
100
AcDbEntity
  8
0
100
AcDbLine
 10
-465.7864429672317
 20
-134.8116823003837
 30
0.0
 11
-465.7864429672317
 21
-114.8116823003837
 31
0.0
  0
LINE
  5
81
330
1F
100
AcDbEntity
  8
0
100
AcDbLine
 10
-468.7864429672317
 20
-114.8116823003837
 30
0.0
 11
-468.7864429672317
 21
-84.81168230038368
 31
0.0
  0
LINE
  5
82
330
1F
100
AcDbEntity
  8
0
100
AcDbLine
 10
-465.7864429672317
 20
-164.8116823003837
 30
0.0
 11
-468.7864429672317
 21
-164.8116823003837
 31
0.0
  0
LINE
  5
83
330
1F
100
AcDbEntity
  8
0
100
AcDbLine
 10
-468.7864429672317
 20
-184.8116823003837
 30
0.0
 11
-465.7864429672317
 21
-184.8116823003837
 31
0.0
  0
LINE
  5
84
330
1F
100
AcDbEntity
  8
0
100
AcDbLine
 10
-465.7864429672317
 20
-184.8116823003837
 30
0.0
 11
-465.7864429672317
 21
-164.8116823003837
 31
0.0
  0
LINE
  5
85
330
1F
100
AcDbEntity
  8
0
100
AcDbLine
 10
-468.7864429672317
 20
-164.8116823003837
 30
0.0
 11
-468.7864429672317
 21
-134.8116823003837
 31
0.0
  0
LINE
  5
86
330
1F
100
AcDbEntity
  8
0
100
AcDbLine
 10
-381.7864429672317
 20
-114.8116823003837
 30
0.0
 11
-378.7864429672317
 21
-114.8116823003837
 31
0.0
  0
LINE
  5
87
330
1F
100
AcDbEntity
  8
0
100
AcDbLine
 10
-378.7864429672317
 20
-134.8116823003837
 30
0.0
 11
-381.7864429672317
 21
-134.8116823003837
 31
0.0
  0
LINE
  5
88
330
1F
100
AcDbEntity
  8
0
100
AcDbLine
 10
-381.7864429672317
 20
-134.8116823003837
 30
0.0
 11
-381.7864429672317
 21
-114.8116823003837
 31
0.0
  0
LINE
  5
89
330
1F
100
AcDbEntity
  8
0
100
AcDbLine
 10
-378.7864429672317
 20
-134.8116823003837
 30
0.0
 11
-378.7864429672317
 21
-164.8116823003837
 31
0.0
  0
LINE
  5
8A
330
1F
100
AcDbEntity
  8
0
100
AcDbLine
 10
-381.7864429672317
 20
-164.8116823003837
 30
0.0
 11
-378.7864429672317
 21
-164.8116823003837
 31
0.0
  0
LINE
  5
8B
330
1F
100
AcDbEntity
  8
0
100
AcDbLine
 10
-378.7864429672317
 20
-184.8116823003837
 30
0.0
 11
-381.7864429672317
 21
-184.8116823003837
 31
0.0
  0
LINE
  5
8C
330
1F
100
AcDbEntity
  8
0
100
AcDbLine
 10
-381.7864429672317
 20
-184.8116823003837
 30
0.0
 11
-381.7864429672317
 21
-164.8116823003837
 31
0.0
  0
LINE
  5
8D
330
1F
100
AcDbEntity
  8
0
100
AcDbLine
 10
-378.7864429672317
 20
-184.8116823003837
 30
0.0
 11
-378.7864429672317
 21
-219.8116823003837
 31
0.0
  0
LINE
  5
8E
330
1F
100
AcDbEntity
  8
0
100
AcDbLine
 10
-345.9864429672317
 20
-114.8116823003837
 30
0.0
 11
-348.9864429672317
 21
-114.8116823003837
 31
0.0
  0
LINE
  5
8F
330
1F
100
AcDbEntity
  8
0
100
AcDbLine
 10
-345.9864429672317
 20
-134.8116823003837
 30
0.0
 11
-345.9864429672317
 21
-114.8116823003837
 31
0.0
  0
LINE
  5
90
330
1F
100
AcDbEntity
  8
0
100
AcDbLine
 10
-348.9864429672317
 20
-134.8116823003837
 30
0.0
 11
-345.9864429672317
 21
-134.8116823003837
 31
0.0
  0
LINE
  5
91
330
1F
100
AcDbEntity
  8
0
100
AcDbLine
 10
-261.9864429672318
 20
-164.8116823003837
 30
0.0
 11
-258.9864429672318
 21
-164.8116823003837
 31
0.0
  0
LINE
  5
92
330
1F
100
AcDbEntity
  8
0
100
AcDbLine
 10
-345.9864429672317
 20
-164.8116823003837
 30
0.0
 11
-348.9864429672317
 21
-164.8116823003837
 31
0.0
  0
LINE
  5
93
330
1F
100
AcDbEntity
  8
0
100
AcDbLine
 10
-261.9864429672318
 20
-134.8116823003837
 30
0.0
 11
-261.9864429672318
 21
-114.8116823003837
 31
0.0
  0
LINE
  5
94
330
1F
100
AcDbEntity
  8
0
100
AcDbLine
 10
-345.9864429672317
 20
-184.8116823003837
 30
0.0
 11
-345.9864429672317
 21
-164.8116823003837
 31
0.0
  0
LINE
  5
95
330
1F
100
AcDbEntity
  8
0
100
AcDbLine
 10
-258.9864429672318
 20
-134.8116823003837
 30
0.0
 11
-261.9864429672318
 21
-134.8116823003837
 31
0.0
  0
LINE
  5
96
330
1F
100
AcDbEntity
  8
0
100
AcDbLine
 10
-261.9864429672318
 20
-114.8116823003837
 30
0.0
 11
-258.9864429672318
 21
-114.8116823003837
 31
0.0
  0
LINE
  5
97
330
1F
100
AcDbEntity
  8
0
100
AcDbLine
 10
-258.9864429672318
 20
-184.8116823003837
 30
0.0
 11
-261.9864429672318
 21
-184.8116823003837
 31
0.0
  0
LINE
  5
98
330
1F
100
AcDbEntity
  8
0
100
AcDbLine
 10
-348.9864429672317
 20
-184.8116823003837
 30
0.0
 11
-345.9864429672317
 21
-184.8116823003837
 31
0.0
  0
LINE
  5
99
330
1F
100
AcDbEntity
  8
0
100
AcDbLine
 10
-261.9864429672318
 20
-184.8116823003837
 30
0.0
 11
-261.9864429672318
 21
-164.8116823003837
 31
0.0
  0
LINE
  5
9A
330
1F
100
AcDbEntity
  8
0
100
AcDbLine
 10
-348.9864429672317
 20
-164.8116823003837
 30
0.0
 11
-348.9864429672317
 21
-134.8116823003837
 31
0.0
  0
LINE
  5
9B
330
1F
100
AcDbEntity
  8
0
100
AcDbLine
 10
-258.9864429672318
 20
-184.8116823003837
 30
0.0
 11
-258.9864429672318
 21
-219.8116823003837
 31
0.0
  0
LINE
  5
9C
330
1F
100
AcDbEntity
  8
0
100
AcDbLine
 10
-258.9864429672318
 20
-134.8116823003837
 30
0.0
 11
-258.9864429672318
 21
-164.8116823003837
 31
0.0
  0
LINE
  5
9D
330
1F
100
AcDbEntity
  8
0
100
AcDbLine
 10
-348.9864429672317
 20
-114.8116823003837
 30
0.0
 11
-348.9864429672317
 21
-89.81168230038367
 31
0.0
  0
LINE
  5
9E
330
1F
100
AcDbEntity
  8
0
100
AcDbLine
 10
-258.9864429672318
 20
-89.81168230038367
 30
0.0
 11
-258.9864429672318
 21
-114.8116823003837
 31
0.0
  0
LINE
  5
9F
330
1F
100
AcDbEntity
  8
0
100
AcDbLine
 10
-348.9864429672317
 20
-89.81168230038367
 30
0.0
 11
-258.9864429672318
 21
-89.81168230038367
 31
0.0
  0
LINE
  5
A0
330
1F
100
AcDbEntity
  8
0
100
AcDbLine
 10
-463.3768053505748
 20
-60.25955853843707
 30
0.0
 11
-463.3768053505748
 21
-38.25955853843715
 31
0.0
  0
LINE
  5
A1
330
1F
100
AcDbEntity
  8
0
100
AcDbLine
 10
-463.3768053505748
 20
23.74044146156282
 30
0.0
 11
-438.376805350575
 21
23.74044146156282
 31
0.0
  0
LINE
  5
A2
330
1F
100
AcDbEntity
  8
0
100
AcDbLine
 10
-373.3768053505749
 20
23.74044146156282
 30
0.0
 11
-373.3768053505749
 21
1.740441461562861
 31
0.0
  0
LINE
  5
A3
330
1F
100
AcDbEntity
  8
0
100
AcDbLine
 10
-373.3768053505749
 20
-60.25955853843707
 30
0.0
 11
-398.3768053505748
 21
-60.25955853843698
 31
0.0
  0
LINE
  5
A4
330
1F
100
AcDbEntity
  8
0
100
AcDbLine
 10
-438.376805350575
 20
-63.25955853843711
 30
0.0
 11
-398.3768053505748
 21
-63.25955853843702
 31
0.0
  0
LINE
  5
A5
330
1F
100
AcDbEntity
  8
0
100
AcDbLine
 10
-438.376805350575
 20
-63.25955853843711
 30
0.0
 11
-438.376805350575
 21
-60.25955853843707
 31
0.0
  0
LINE
  5
A6
330
1F
100
AcDbEntity
  8
0
100
AcDbLine
 10
-398.3768053505748
 20
-63.25955853843702
 30
0.0
 11
-398.3768053505748
 21
-60.25955853843698
 31
0.0
  0
LINE
  5
A7
330
1F
100
AcDbEntity
  8
0
100
AcDbLine
 10
-466.3768053505749
 20
-38.25955853843715
 30
0.0
 11
-463.3768053505748
 21
-38.25955853843715
 31
0.0
  0
LINE
  5
A8
330
1F
100
AcDbEntity
  8
0
100
AcDbLine
 10
-466.3768053505749
 20
1.740441461562861
 30
0.0
 11
-466.3768053505749
 21
-38.25955853843715
 31
0.0
  0
LINE
  5
A9
330
1F
100
AcDbEntity
  8
0
100
AcDbLine
 10
-466.3768053505749
 20
1.740441461562861
 30
0.0
 11
-463.376805350575
 21
1.740441461562861
 31
0.0
  0
LINE
  5
AA
330
1F
100
AcDbEntity
  8
0
100
AcDbLine
 10
-463.376805350575
 20
1.740441461562861
 30
0.0
 11
-463.3768053505748
 21
23.74044146156282
 31
0.0
  0
LINE
  5
AB
330
1F
100
AcDbEntity
  8
0
100
AcDbLine
 10
-373.3768053505749
 20
1.740441461562861
 30
0.0
 11
-370.3768053505749
 21
1.740441461562861
 31
0.0
  0
LINE
  5
AC
330
1F
100
AcDbEntity
  8
0
100
AcDbLine
 10
-373.3768053505748
 20
-38.25955853843715
 30
0.0
 11
-370.3768053505749
 21
-38.25955853843715
 31
0.0
  0
LINE
  5
AD
330
1F
100
AcDbEntity
  8
0
100
AcDbLine
 10
-370.3768053505749
 20
-38.25955853843715
 30
0.0
 11
-370.3768053505749
 21
1.740441461562861
 31
0.0
  0
LINE
  5
AE
330
1F
100
AcDbEntity
  8
0
100
AcDbLine
 10
-373.3768053505748
 20
-38.25955853843715
 30
0.0
 11
-373.3768053505749
 21
-60.25955853843707
 31
0.0
  0
LINE
  5
AF
330
1F
100
AcDbEntity
  8
0
100
AcDbLine
 10
-398.3768053505749
 20
23.74044146156291
 30
0.0
 11
-398.3768053505749
 21
26.74044146156286
 31
0.0
  0
LINE
  5
B0
330
1F
100
AcDbEntity
  8
0
100
AcDbLine
 10
-398.3768053505749
 20
26.74044146156286
 30
0.0
 11
-438.376805350575
 21
26.74044146156286
 31
0.0
  0
LINE
  5
B1
330
1F
100
AcDbEntity
  8
0
100
AcDbLine
 10
-438.376805350575
 20
23.74044146156282
 30
0.0
 11
-438.376805350575
 21
26.74044146156286
 31
0.0
  0
LINE
  5
B2
330
1F
100
AcDbEntity
  8
0
100
AcDbLine
 10
-398.3768053505749
 20
23.74044146156291
 30
0.0
 11
-373.3768053505749
 21
23.74044146156282
 31
0.0
  0
LINE
  5
B3
330
1F
100
AcDbEntity
  8
0
100
AcDbLine
 10
-438.376805350575
 20
-60.25955853843707
 30
0.0
 11
-463.3768053505748
 21
-60.25955853843707
 31
0.0
  0
LINE
  5
B4
330
1F
100
AcDbEntity
  8
0
100
AcDbLine
 10
-403.3768053505748
 20
-38.25955853843715
 30
0.0
 11
-406.3768053505748
 21
-38.25955853843715
 31
0.0
  0
LINE
  5
B5
330
1F
100
AcDbEntity
  8
0
100
AcDbLine
 10
-406.3768053505748
 20
1.740441461562861
 30
0.0
 11
-406.3768053505748
 21
-38.25955853843715
 31
0.0
  0
LINE
  5
B6
330
1F
100
AcDbEntity
  8
0
100
AcDbLine
 10
-403.3768053505748
 20
1.740441461562861
 30
0.0
 11
-406.3768053505748
 21
1.740441461562861
 31
0.0
  0
LINE
  5
B7
330
1F
100
AcDbEntity
  8
0
100
AcDbLine
 10
-403.3768053505748
 20
1.740441461562861
 30
0.0
 11
-403.3768053505748
 21
-38.25955853843715
 31
0.0
  0
LINE
  5
B8
330
1F
100
AcDbEntity
  8
0
100
AcDbLine
 10
-348.9282510023851
 20
-59.54283872698165
 30
0.0
 11
-348.9282510023851
 21
24.45716127301824
 31
0.0
  0
LINE
  5
B9
330
1F
100
AcDbEntity
  8
0
100
AcDbLine
 10
-348.9282510023851
 20
24.45716127301824
 30
0.0
 11
-346.4282510023851
 21
24.45716127301824
 31
0.0
  0
LINE
  5
BA
330
1F
100
AcDbEntity
  8
0
100
AcDbLine
 10
-257.9282510023851
 20
24.45716127301824
 30
0.0
 11
-257.9282510023851
 21
-59.54283872698165
 31
0.0
  0
LINE
  5
BB
330
1F
100
AcDbEntity
  8
0
100
AcDbLine
 10
-257.9282510023851
 20
-59.54283872698165
 30
0.0
 11
-273.9282510023852
 21
-59.54283872698165
 31
0.0
  0
LINE
  5
BC
330
1F
100
AcDbEntity
  8
0
100
AcDbLine
 10
-292.9282510023851
 20
-62.54283872698169
 30
0.0
 11
-292.9282510023851
 21
-59.54283872698165
 31
0.0
  0
LINE
  5
BD
330
1F
100
AcDbEntity
  8
0
100
AcDbLine
 10
-273.9282510023852
 20
-59.54283872698165
 30
0.0
 11
-273.9282510023852
 21
-62.54283872698169
 31
0.0
  0
LINE
  5
BE
330
1F
100
AcDbEntity
  8
0
100
AcDbLine
 10
-273.9282510023852
 20
-62.54283872698169
 30
0.0
 11
-292.9282510023851
 21
-62.54283872698169
 31
0.0
  0
LINE
  5
BF
330
1F
100
AcDbEntity
  8
0
100
AcDbLine
 10
-292.9282510023851
 20
-59.54283872698165
 30
0.0
 11
-343.4282510023851
 21
-59.54283872698165
 31
0.0
  0
LINE
  5
C0
330
1F
100
AcDbEntity
  8
0
100
AcDbLine
 10
-292.9282510023851
 20
27.45716127301819
 30
0.0
 11
-292.9282510023851
 21
24.45716127301824
 31
0.0
  0
LINE
  5
C1
330
1F
100
AcDbEntity
  8
0
100
AcDbLine
 10
-273.9282510023852
 20
24.45716127301824
 30
0.0
 11
-273.9282510023852
 21
27.45716127301819
 31
0.0
  0
LINE
  5
C2
330
1F
100
AcDbEntity
  8
0
100
AcDbLine
 10
-273.9282510023852
 20
27.45716127301819
 30
0.0
 11
-292.9282510023851
 21
27.45716127301819
 31
0.0
  0
LINE
  5
C3
330
1F
100
AcDbEntity
  8
0
100
AcDbLine
 10
-273.9282510023852
 20
24.45716127301824
 30
0.0
 11
-257.9282510023851
 21
24.45716127301824
 31
0.0
  0
LINE
  5
C4
330
1F
100
AcDbEntity
  8
0
100
AcDbLine
 10
-346.4282510023851
 20
-62.54283872698169
 30
0.0
 11
-346.4282510023851
 21
-59.54283872698165
 31
0.0
  0
LINE
  5
C5
330
1F
100
AcDbEntity
  8
0
100
AcDbLine
 10
-343.4282510023851
 20
-59.54283872698165
 30
0.0
 11
-343.4282510023851
 21
-62.54283872698169
 31
0.0
  0
LINE
  5
C6
330
1F
100
AcDbEntity
  8
0
100
AcDbLine
 10
-343.4282510023851
 20
-62.54283872698169
 30
0.0
 11
-346.4282510023851
 21
-62.54283872698169
 31
0.0
  0
LINE
  5
C7
330
1F
100
AcDbEntity
  8
0
100
AcDbLine
 10
-346.4282510023851
 20
-59.54283872698165
 30
0.0
 11
-348.9282510023851
 21
-59.54283872698165
 31
0.0
  0
LINE
  5
C8
330
1F
100
AcDbEntity
  8
0
100
AcDbLine
 10
-346.4282510023851
 20
27.45716127301819
 30
0.0
 11
-346.4282510023851
 21
24.45716127301824
 31
0.0
  0
LINE
  5
C9
330
1F
100
AcDbEntity
  8
0
100
AcDbLine
 10
-343.4282510023851
 20
24.45716127301824
 30
0.0
 11
-343.4282510023851
 21
27.45716127301819
 31
0.0
  0
LINE
  5
CA
330
1F
100
AcDbEntity
  8
0
100
AcDbLine
 10
-343.4282510023851
 20
27.45716127301819
 30
0.0
 11
-346.4282510023851
 21
27.45716127301819
 31
0.0
  0
LINE
  5
CB
330
1F
100
AcDbEntity
  8
0
100
AcDbLine
 10
-343.4282510023851
 20
24.45716127301824
 30
0.0
 11
-292.9282510023851
 21
24.45716127301824
 31
0.0
  0
LINE
  5
CC
330
1F
100
AcDbEntity
  8
0
100
AcDbLine
 10
-215.4058259790228
 20
-189.62887495916
 30
0.0
 11
-215.4058259790228
 21
-219.62887495916
 31
0.0
  0
LINE
  5
CD
330
1F
100
AcDbEntity
  8
0
100
AcDbLine
 10
-231.4058259790227
 20
-149.62887495916
 30
0.0
 11
-231.4058259790227
 21
-146.62887495916
 31
0.0
  0
LINE
  5
CE
330
1F
100
AcDbEntity
  8
0
100
AcDbLine
 10
-231.4058259790227
 20
-146.62887495916
 30
0.0
 11
-221.4058259790228
 21
-146.62887495916
 31
0.0
  0
LINE
  5
CF
330
1F
100
AcDbEntity
  8
0
100
AcDbLine
 10
-221.4058259790228
 20
-146.62887495916
 30
0.0
 11
-221.4058259790228
 21
-149.62887495916
 31
0.0
  0
LINE
  5
D0
330
1F
100
AcDbEntity
  8
0
100
AcDbLine
 10
-237.4058259790228
 20
-219.62887495916
 30
0.0
 11
-237.4058259790228
 21
-189.62887495916
 31
0.0
  0
LINE
  5
D1
330
1F
100
AcDbEntity
  8
0
100
AcDbLine
 10
-221.4058259790228
 20
-149.62887495916
 30
0.0
 11
-215.4058259790228
 21
-149.62887495916
 31
0.0
  0
LINE
  5
D2
330
1F
100
AcDbEntity
  8
0
100
AcDbLine
 10
-237.4058259790228
 20
-179.6288749591601
 30
0.0
 11
-237.4058259790228
 21
-149.62887495916
 31
0.0
  0
LINE
  5
D3
330
1F
100
AcDbEntity
  8
0
100
AcDbLine
 10
-215.4058259790228
 20
-149.62887495916
 30
0.0
 11
-215.4058259790228
 21
-179.6288749591601
 31
0.0
  0
LINE
  5
D4
330
1F
100
AcDbEntity
  8
0
100
AcDbLine
 10
-215.4058259790228
 20
-219.62887495916
 30
0.0
 11
-237.4058259790228
 21
-219.62887495916
 31
0.0
  0
LINE
  5
D5
330
1F
100
AcDbEntity
  8
0
100
AcDbLine
 10
-237.4058259790228
 20
-149.62887495916
 30
0.0
 11
-231.4058259790227
 21
-149.62887495916
 31
0.0
  0
LINE
  5
D6
330
1F
100
AcDbEntity
  8
0
100
AcDbLine
 10
-234.4058259790228
 20
-179.6288749591601
 30
0.0
 11
-234.4058259790228
 21
-189.62887495916
 31
0.0
  0
LINE
  5
D7
330
1F
100
AcDbEntity
  8
0
100
AcDbLine
 10
-234.4058259790228
 20
-189.62887495916
 30
0.0
 11
-237.4058259790228
 21
-189.62887495916
 31
0.0
  0
LINE
  5
D8
330
1F
100
AcDbEntity
  8
0
100
AcDbLine
 10
-237.4058259790228
 20
-179.6288749591601
 30
0.0
 11
-234.4058259790228
 21
-179.6288749591601
 31
0.0
  0
LINE
  5
D9
330
1F
100
AcDbEntity
  8
0
100
AcDbLine
 10
-218.4058259790227
 20
-179.6288749591601
 30
0.0
 11
-215.4058259790228
 21
-179.6288749591601
 31
0.0
  0
LINE
  5
DA
330
1F
100
AcDbEntity
  8
0
100
AcDbLine
 10
-215.4058259790228
 20
-189.62887495916
 30
0.0
 11
-218.4058259790227
 21
-189.62887495916
 31
0.0
  0
LINE
  5
DB
330
1F
100
AcDbEntity
  8
0
100
AcDbLine
 10
-218.4058259790227
 20
-189.62887495916
 30
0.0
 11
-218.4058259790227
 21
-179.6288749591601
 31
0.0
  0
LINE
  5
DC
330
1F
100
AcDbEntity
  8
0
100
AcDbLine
 10
-231.4058259790227
 20
-62.62887495915992
 30
0.0
 11
-221.4058259790228
 21
-62.62887495915992
 31
0.0
  0
LINE
  5
DD
330
1F
100
AcDbEntity
  8
0
100
AcDbLine
 10
-221.4058259790228
 20
-62.62887495915992
 30
0.0
 11
-221.4058259790228
 21
-65.62887495915992
 31
0.0
  0
LINE
  5
DE
330
1F
100
AcDbEntity
  8
0
100
AcDbLine
 10
-221.4058259790228
 20
-65.62887495915992
 30
0.0
 11
-215.4058259790228
 21
-65.62887495915992
 31
0.0
  0
LINE
  5
DF
330
1F
100
AcDbEntity
  8
0
100
AcDbLine
 10
-237.4058259790228
 20
-135.62887495916
 30
0.0
 11
-237.4058259790228
 21
-105.6288749591601
 31
0.0
  0
LINE
  5
E0
330
1F
100
AcDbEntity
  8
0
100
AcDbLine
 10
-237.4058259790228
 20
-95.62887495915999
 30
0.0
 11
-237.4058259790228
 21
-65.62887495915992
 31
0.0
  0
LINE
  5
E1
330
1F
100
AcDbEntity
  8
0
100
AcDbLine
 10
-231.4058259790227
 20
-65.62887495915992
 30
0.0
 11
-231.4058259790227
 21
-62.62887495915992
 31
0.0
  0
LINE
  5
E2
330
1F
100
AcDbEntity
  8
0
100
AcDbLine
 10
-215.4058259790228
 20
-135.62887495916
 30
0.0
 11
-237.4058259790228
 21
-135.62887495916
 31
0.0
  0
LINE
  5
E3
330
1F
100
AcDbEntity
  8
0
100
AcDbLine
 10
-234.4058259790228
 20
-105.6288749591601
 30
0.0
 11
-237.4058259790228
 21
-105.6288749591601
 31
0.0
  0
LINE
  5
E4
330
1F
100
AcDbEntity
  8
0
100
AcDbLine
 10
-237.4058259790228
 20
-95.62887495915999
 30
0.0
 11
-234.4058259790228
 21
-95.62887495915999
 31
0.0
  0
LINE
  5
E5
330
1F
100
AcDbEntity
  8
0
100
AcDbLine
 10
-237.4058259790228
 20
-65.62887495915992
 30
0.0
 11
-231.4058259790227
 21
-65.62887495915992
 31
0.0
  0
LINE
  5
E6
330
1F
100
AcDbEntity
  8
0
100
AcDbLine
 10
-218.4058259790227
 20
-95.62887495915999
 30
0.0
 11
-215.4058259790228
 21
-95.62887495915999
 31
0.0
  0
LINE
  5
E7
330
1F
100
AcDbEntity
  8
0
100
AcDbLine
 10
-218.4058259790227
 20
-105.6288749591601
 30
0.0
 11
-218.4058259790227
 21
-95.62887495915999
 31
0.0
  0
LINE
  5
E8
330
1F
100
AcDbEntity
  8
0
100
AcDbLine
 10
-215.4058259790228
 20
-105.62887495916
 30
0.0
 11
-218.4058259790227
 21
-105.6288749591601
 31
0.0
  0
LINE
  5
E9
330
1F
100
AcDbEntity
  8
0
100
AcDbLine
 10
-215.4058259790228
 20
-105.62887495916
 30
0.0
 11
-215.4058259790228
 21
-135.62887495916
 31
0.0
  0
LINE
  5
EA
330
1F
100
AcDbEntity
  8
0
100
AcDbLine
 10
-234.4058259790228
 20
-95.62887495915999
 30
0.0
 11
-234.4058259790228
 21
-105.6288749591601
 31
0.0
  0
LINE
  5
EB
330
1F
100
AcDbEntity
  8
0
100
AcDbLine
 10
-215.4058259790228
 20
-65.62887495915992
 30
0.0
 11
-215.4058259790228
 21
-95.62887495915999
 31
0.0
  0
LINE
  5
EC
330
1F
100
AcDbEntity
  8
0
100
AcDbLine
 10
-428.7864429672317
 20
-92.81168230038371
 30
0.0
 11
-434.7864429672318
 21
-92.81168230038371
 31
0.0
  0
LINE
  5
ED
330
1F
100
AcDbEntity
  8
0
100
AcDbLine
 10
-418.7864429672317
 20
-108.8116823003836
 30
0.0
 11
-412.7864429672316
 21
-108.8116823003836
 31
0.0
  0
LINE
  5
EE
330
1F
100
AcDbEntity
  8
0
100
AcDbLine
 10
-428.7864429672317
 20
-89.81168230038367
 30
0.0
 11
-428.7864429672317
 21
-92.81168230038371
 31
0.0
  0
LINE
  5
EF
330
1F
100
AcDbEntity
  8
0
100
AcDbLine
 10
-418.7864429672317
 20
-92.81168230038371
 30
0.0
 11
-418.7864429672317
 21
-89.81168230038367
 31
0.0
  0
LINE
  5
F0
330
1F
100
AcDbEntity
  8
0
100
AcDbLine
 10
-428.7864429672317
 20
-108.8116823003836
 30
0.0
 11
-428.7864429672317
 21
-111.8116823003836
 31
0.0
  0
LINE
  5
F1
330
1F
100
AcDbEntity
  8
0
100
AcDbLine
 10
-418.7864429672317
 20
-111.8116823003836
 30
0.0
 11
-418.7864429672317
 21
-108.8116823003836
 31
0.0
  0
LINE
  5
F2
330
1F
100
AcDbEntity
  8
0
100
AcDbLine
 10
-428.7864429672317
 20
-89.81168230038367
 30
0.0
 11
-418.7864429672317
 21
-89.81168230038367
 31
0.0
  0
LINE
  5
F3
330
1F
100
AcDbEntity
  8
0
100
AcDbLine
 10
-418.7864429672317
 20
-111.8116823003836
 30
0.0
 11
-428.7864429672317
 21
-111.8116823003836
 31
0.0
  0
LINE
  5
F4
330
1F
100
AcDbEntity
  8
0
100
AcDbLine
 10
-216.0513146760662
 20
25.38488552264964
 30
0.0
 11
-216.0513146760662
 21
13.38488552264957
 31
0.0
  0
LINE
  5
F5
330
1F
100
AcDbEntity
  8
0
100
AcDbLine
 10
-238.0513146760664
 20
25.38488552264964
 30
0.0
 11
-216.0513146760662
 21
25.38488552264964
 31
0.0
  0
LINE
  5
F6
330
1F
100
AcDbEntity
  8
0
100
AcDbLine
 10
-216.0513146760662
 20
13.38488552264957
 30
0.0
 11
-238.0513146760664
 21
13.38488552264957
 31
0.0
  0
LINE
  5
F7
330
1F
100
AcDbEntity
  8
0
100
AcDbLine
 10
-238.0513146760664
 20
13.38488552264957
 30
0.0
 11
-238.0513146760664
 21
25.38488552264964
 31
0.0
  0
LINE
  5
F8
330
1F
100
AcDbEntity
  8
0
100
AcDbLine
 10
-238.0513146760664
 20
-6.025927753350443
 30
0.0
 11
-238.0513146760664
 21
5.974072246649625
 31
0.0
  0
LINE
  5
F9
330
1F
100
AcDbEntity
  8
0
100
AcDbLine
 10
-216.0513146760662
 20
-6.025927753350443
 30
0.0
 11
-238.0513146760664
 21
-6.025927753350443
 31
0.0
  0
LINE
  5
FA
330
1F
100
AcDbEntity
  8
0
100
AcDbLine
 10
-238.0513146760664
 20
5.974072246649625
 30
0.0
 11
-216.0513146760662
 21
5.974072246649625
 31
0.0
  0
LINE
  5
FB
330
1F
100
AcDbEntity
  8
0
100
AcDbLine
 10
-216.0513146760662
 20
5.974072246649625
 30
0.0
 11
-216.0513146760662
 21
-6.025927753350443
 31
0.0
  0
LINE
  5
FC
330
1F
100
AcDbEntity
  8
0
100
AcDbLine
 10
-216.0513146760662
 20
-25.43674102935046
 30
0.0
 11
-238.0513146760664
 21
-25.43674102935046
 31
0.0
  0
LINE
  5
FD
330
1F
100
AcDbEntity
  8
0
100
AcDbLine
 10
-238.0513146760664
 20
-25.43674102935046
 30
0.0
 11
-238.0513146760664
 21
-13.43674102935039
 31
0.0
  0
LINE
  5
FE
330
1F
100
AcDbEntity
  8
0
100
AcDbLine
 10
-238.0513146760664
 20
-13.43674102935039
 30
0.0
 11
-216.0513146760662
 21
-13.43674102935039
 31
0.0
  0
LINE
  5
FF
330
1F
100
AcDbEntity
  8
0
100
AcDbLine
 10
-216.0513146760662
 20
-13.43674102935039
 30
0.0
 11
-216.0513146760662
 21
-25.43674102935046
 31
0.0
  0
LINE
  5
100
330
1F
100
AcDbEntity
  8
0
100
AcDbLine
 10
-216.0513146760662
 20
-33.48051560835038
 30
0.0
 11
-216.0513146760662
 21
-45.48051560835044
 31
0.0
  0
LINE
  5
101
330
1F
100
AcDbEntity
  8
0
100
AcDbLine
 10
-238.0513146760664
 20
-33.48051560835038
 30
0.0
 11
-216.0513146760662
 21
-33.48051560835038
 31
0.0
  0
LINE
  5
102
330
1F
100
AcDbEntity
  8
0
100
AcDbLine
 10
-216.0513146760662
 20
-45.48051560835044
 30
0.0
 11
-238.0513146760664
 21
-45.48051560835044
 31
0.0
  0
LINE
  5
103
330
1F
100
AcDbEntity
  8
0
100
AcDbLine
 10
-238.0513146760664
 20
-45.48051560835044
 30
0.0
 11
-238.0513146760664
 21
-33.48051560835038
 31
0.0
  0
LINE
  5
104
330
1F
100
AcDbEntity
  8
0
100
AcDbLine
 10
-409.7864429672316
 20
-95.81168230038368
 30
0.0
 11
-412.7864429672316
 21
-95.81168230038368
 31
0.0
  0
LINE
  5
105
330
1F
100
AcDbEntity
  8
0
100
AcDbLine
 10
-409.7864429672316
 20
-95.81168230038368
 30
0.0
 11
-409.7864429672316
 21
-105.8116823003836
 31
0.0
  0
LINE
  5
106
330
1F
100
AcDbEntity
  8
0
100
AcDbLine
 10
-437.7864429672317
 20
-105.8116823003836
 30
0.0
 11
-437.7864429672316
 21
-95.81168230038368
 31
0.0
  0
LINE
  5
107
330
1F
100
AcDbEntity
  8
0
100
AcDbLine
 10
-437.7864429672317
 20
-105.8116823003836
 30
0.0
 11
-434.7864429672318
 21
-105.8116823003836
 31
0.0
  0
LINE
  5
108
330
1F
100
AcDbEntity
  8
0
100
AcDbLine
 10
-434.7864429672318
 20
-92.81168230038371
 30
0.0
 11
-434.7864429672318
 21
-95.81168230038368
 31
0.0
  0
LINE
  5
109
330
1F
100
AcDbEntity
  8
0
100
AcDbLine
 10
-434.7864429672318
 20
-95.81168230038368
 30
0.0
 11
-437.7864429672316
 21
-95.81168230038368
 31
0.0
  0
LINE
  5
10A
330
1F
100
AcDbEntity
  8
0
100
AcDbLine
 10
-434.7864429672318
 20
-105.8116823003836
 30
0.0
 11
-434.7864429672318
 21
-108.8116823003836
 31
0.0
  0
LINE
  5
10B
330
1F
100
AcDbEntity
  8
0
100
AcDbLine
 10
-434.7864429672318
 20
-108.8116823003836
 30
0.0
 11
-428.7864429672317
 21
-108.8116823003836
 31
0.0
  0
LINE
  5
10C
330
1F
100
AcDbEntity
  8
0
100
AcDbLine
 10
-412.7864429672316
 20
-105.8116823003836
 30
0.0
 11
-412.7864429672316
 21
-108.8116823003836
 31
0.0
  0
LINE
  5
10D
330
1F
100
AcDbEntity
  8
0
100
AcDbLine
 10
-412.7864429672316
 20
-105.8116823003836
 30
0.0
 11
-409.7864429672316
 21
-105.8116823003836
 31
0.0
  0
LINE
  5
10E
330
1F
100
AcDbEntity
  8
0
100
AcDbLine
 10
-412.7864429672316
 20
-95.81168230038368
 30
0.0
 11
-412.7864429672316
 21
-92.81168230038371
 31
0.0
  0
LINE
  5
10F
330
1F
100
AcDbEntity
  8
0
100
AcDbLine
 10
-412.7864429672316
 20
-92.81168230038371
 30
0.0
 11
-418.7864429672317
 21
-92.81168230038371
 31
0.0
  0
LINE
  5
110
330
1F
100
AcDbEntity
  8
0
100
AcDbLine
 10
73.70556199079624
 20
-106.1793000244428
 30
0.0
 11
73.63741364337433
 21
-106.6969381146479
 31
0.0
  0
LINE
  5
111
330
1F
100
AcDbEntity
  8
0
100
AcDbLine
 10
-41.47479661640233
 20
-90.60495582331033
 30
0.0
 11
-41.65946354755116
 21
-90.1165998934523
 31
0.0
  0
LINE
  5
112
330
1F
100
AcDbEntity
  8
0
100
AcDbLine
 10
-43.35949927542014
 20
-89.06309216971732
 30
0.0
 11
-43.87901019927332
 21
-89.1150709123395
 31
0.0
  0
LINE
  5
113
330
1F
100
AcDbEntity
  8
0
100
AcDbLine
 10
13.09192909384312
 20
24.8200733117219
 30
0.0
 11
13.09192909384312
 21
-65.17992668827812
 31
0.0
  0
LINE
  5
114
330
1F
100
AcDbEntity
  8
0
100
AcDbLine
 10
-59.76126332527704
 20
-58.92370039291639
 30
0.0
 11
-152.7545495332775
 21
-58.92370039291639
 31
0.0
  0
LINE
  5
115
330
1F
100
AcDbEntity
  8
0
100
AcDbLine
 10
-6.90807090615684
 20
24.8200733117219
 30
0.0
 11
13.09192909384312
 21
24.8200733117219
 31
0.0
  0
LINE
  5
116
330
1F
100
AcDbEntity
  8
0
100
AcDbLine
 10
-19.10807090615695
 20
-65.17992668827812
 30
0.0
 11
-39.10807090615665
 21
-65.17992668827812
 31
0.0
  0
LINE
  5
117
330
1F
100
AcDbEntity
  8
0
100
AcDbLine
 10
-42.36833813958832
 20
-89.36208443139155
 30
0.0
 11
-42.84423716849979
 21
-89.14734388103251
 31
0.0
  0
LINE
  5
118
330
1F
100
AcDbEntity
  8
0
100
AcDbLine
 10
-39.10807090615665
 20
24.8200733117219
 30
0.0
 11
-19.10807090615695
 21
24.8200733117219
 31
0.0
  0
LINE
  5
119
330
1F
100
AcDbEntity
  8
0
100
AcDbLine
 10
-39.10807090615665
 20
-65.17992668827812
 30
0.0
 11
-39.10807090615665
 21
24.8200733117219
 31
0.0
  0
LINE
  5
11A
330
1F
100
AcDbEntity
  8
0
100
AcDbLine
 10
-56.76126332527701
 20
3.076299607083631
 30
0.0
 11
-59.76126332527704
 21
3.076299607083631
 31
0.0
  0
LINE
  5
11B
330
1F
100
AcDbEntity
  8
0
100
AcDbLine
 10
-45.33662214155119
 20
-90.48451146443702
 30
0.0
 11
-45.42087385286642
 21
-90.99977357135728
 31
0.0
  0
LINE
  5
11C
330
1F
100
AcDbEntity
  8
0
100
AcDbLine
 10
-41.4228178737801
 20
-91.12446674716361
 30
0.0
 11
-41.47479661640233
 21
-90.60495582331033
 31
0.0
  0
LINE
  5
11D
330
1F
100
AcDbEntity
  8
0
100
AcDbLine
 10
-42.47632559751513
 20
-92.82450247503249
 30
0.0
 11
-42.0524053112258
 21
-92.51973210153827
 31
0.0
  0
LINE
  5
11E
330
1F
100
AcDbEntity
  8
0
100
AcDbLine
 10
-154.6673661291314
 20
-89.29973784348839
 30
0.0
 11
-155.0912864154207
 21
-89.60450821698262
 31
0.0
  0
LINE
  5
11F
330
1F
100
AcDbEntity
  8
0
100
AcDbLine
 10
-56.76126332527701
 20
-36.92370039291639
 30
0.0
 11
-59.76126332527704
 21
-36.92370039291639
 31
0.0
  0
LINE
  5
120
330
1F
100
AcDbEntity
  8
0
100
AcDbLine
 10
-155.0912864154207
 20
-89.60450821698262
 30
0.0
 11
-155.4218815911921
 21
-90.00861243552545
 31
0.0
  0
LINE
  5
121
330
1F
100
AcDbEntity
  8
0
100
AcDbLine
 10
-151.9594635475512
 20
-90.1165998934523
 30
0.0
 11
-152.2642339210454
 21
-89.69267960716294
 31
0.0
  0
LINE
  5
122
330
1F
100
AcDbEntity
  8
0
100
AcDbLine
 10
-45.18422817909536
 20
-92.00764042506857
 30
0.0
 11
-44.87945780560113
 21
-92.43156071135795
 31
0.0
  0
LINE
  5
123
330
1F
100
AcDbEntity
  8
0
100
AcDbLine
 10
-152.2642339210454
 20
-89.69267960716294
 30
0.0
 11
-152.6683381395883
 21
-89.36208443139155
 31
0.0
  0
LINE
  5
124
330
1F
100
AcDbEntity
  8
0
100
AcDbLine
 10
15.5781541366774
 20
-215.0621201592604
 30
0.0
 11
-24.42184586332325
 21
-215.0621201592604
 31
0.0
  0
LINE
  5
125
330
1F
100
AcDbEntity
  8
0
100
AcDbLine
 10
-41.96423392104539
 20
-89.69267960716294
 30
0.0
 11
-42.36833813958832
 21
-89.36208443139155
 31
0.0
  0
LINE
  5
126
330
1F
100
AcDbEntity
  8
0
100
AcDbLine
 10
86.63741364337434
 20
-96.69693811464792
 30
0.0
 11
89.63741364337439
 21
-96.69693811464792
 31
0.0
  0
LINE
  5
127
330
1F
100
AcDbEntity
  8
0
100
AcDbLine
 10
-41.72181013545437
 20
-92.11562788299543
 30
0.0
 11
-41.50706958509533
 21
-91.63972885408387
 31
0.0
  0
LINE
  5
128
330
1F
100
AcDbEntity
  8
0
100
AcDbLine
 10
-45.12188159119215
 20
-90.00861243552545
 30
0.0
 11
-45.33662214155119
 21
-90.48451146443702
 31
0.0
  0
LINE
  5
129
330
1F
100
AcDbEntity
  8
0
100
AcDbLine
 10
-152.6683381395883
 20
-89.36208443139155
 30
0.0
 11
-153.1442371684998
 21
-89.14734388103251
 31
0.0
  0
LINE
  5
12A
330
1F
100
AcDbEntity
  8
0
100
AcDbLine
 10
-43.48419245122638
 20
-93.06114814880355
 30
0.0
 11
-42.9646815273732
 21
-93.00916940618137
 31
0.0
  0
LINE
  5
12B
330
1F
100
AcDbEntity
  8
0
100
AcDbLine
 10
-155.6366221415512
 20
-90.48451146443702
 30
0.0
 11
-155.7208738528664
 21
-90.99977357135728
 31
0.0
  0
LINE
  5
12C
330
1F
100
AcDbEntity
  8
0
100
AcDbLine
 10
-44.4753535870582
 20
-92.76215588712932
 30
0.0
 11
-43.99945455814673
 21
-92.97689643748836
 31
0.0
  0
LINE
  5
12D
330
1F
100
AcDbEntity
  8
0
100
AcDbLine
 10
-69.72184586332324
 20
-87.06212015926045
 30
0.0
 11
-69.72184586332324
 21
-117.0621201592604
 31
0.0
  0
LINE
  5
12E
330
1F
100
AcDbEntity
  8
0
100
AcDbLine
 10
-44.79128641542071
 20
-89.60450821698262
 30
0.0
 11
-45.12188159119215
 21
-90.00861243552545
 31
0.0
  0
LINE
  5
12F
330
1F
100
AcDbEntity
  8
0
100
AcDbLine
 10
-66.7218458633232
 20
-117.0621201592604
 30
0.0
 11
-69.72184586332324
 21
-117.0621201592604
 31
0.0
  0
LINE
  5
130
330
1F
100
AcDbEntity
  8
0
100
AcDbLine
 10
43.57815413667744
 20
-167.0621201592604
 30
0.0
 11
40.5781541366774
 21
-167.0621201592604
 31
0.0
  0
LINE
  5
131
330
1F
100
AcDbEntity
  8
0
100
AcDbLine
 10
-19.10807090615695
 20
24.8200733117219
 30
0.0
 11
-19.10807090615695
 21
-65.17992668827812
 31
0.0
  0
LINE
  5
132
330
1F
100
AcDbEntity
  8
0
100
AcDbLine
 10
-59.76126332527704
 20
-36.92370039291639
 30
0.0
 11
-59.76126332527704
 21
-58.92370039291639
 31
0.0
  0
LINE
  5
133
330
1F
100
AcDbEntity
  8
0
100
AcDbLine
 10
-45.42087385286642
 20
-90.99977357135728
 30
0.0
 11
-45.36889511024419
 21
-91.51928449521054
 31
0.0
  0
LINE
  5
134
330
1F
100
AcDbEntity
  8
0
100
AcDbLine
 10
80.63741364337427
 20
-150.8969381146478
 30
0.0
 11
86.63741364337434
 21
-150.8969381146478
 31
0.0
  0
LINE
  5
135
330
1F
100
AcDbEntity
  8
0
100
AcDbLine
 10
-152.7763255975151
 20
-92.82450247503249
 30
0.0
 11
-152.3524053112258
 21
-92.51973210153827
 31
0.0
  0
LINE
  5
136
330
1F
100
AcDbEntity
  8
0
100
AcDbLine
 10
-42.84423716849979
 20
-89.14734388103251
 30
0.0
 11
-43.35949927542014
 21
-89.06309216971732
 31
0.0
  0
LINE
  5
137
330
1F
100
AcDbEntity
  8
0
100
AcDbLine
 10
-153.1442371684998
 20
-89.14734388103251
 30
0.0
 11
-153.6594992754201
 21
-89.06309216971732
 31
0.0
  0
LINE
  5
138
330
1F
100
AcDbEntity
  8
0
100
AcDbLine
 10
-151.8070695850953
 20
-91.63972885408387
 30
0.0
 11
-151.7228178737801
 21
-91.12446674716361
 31
0.0
  0
LINE
  5
139
330
1F
100
AcDbEntity
  8
0
100
AcDbLine
 10
-6.90807090615684
 20
-65.17992668827812
 30
0.0
 11
-6.90807090615684
 21
24.8200733117219
 31
0.0
  0
LINE
  5
13A
330
1F
100
AcDbEntity
  8
0
100
AcDbLine
 10
-152.3524053112258
 20
-92.51973210153827
 30
0.0
 11
-152.0218101354544
 21
-92.11562788299543
 31
0.0
  0
LINE
  5
13B
330
1F
100
AcDbEntity
  8
0
100
AcDbLine
 10
-155.7208738528664
 20
-90.99977357135728
 30
0.0
 11
-155.6688951102442
 21
-91.51928449521054
 31
0.0
  0
LINE
  5
13C
330
1F
100
AcDbEntity
  8
0
100
AcDbLine
 10
-155.6688951102442
 20
-91.51928449521054
 30
0.0
 11
-155.4842281790954
 21
-92.00764042506857
 31
0.0
  0
LINE
  5
13D
330
1F
100
AcDbEntity
  8
0
100
AcDbLine
 10
-153.2646815273732
 20
-93.00916940618137
 30
0.0
 11
-152.7763255975151
 21
-92.82450247503249
 31
0.0
  0
LINE
  5
13E
330
1F
100
AcDbEntity
  8
0
100
AcDbLine
 10
-43.87901019927332
 20
-89.1150709123395
 30
0.0
 11
-44.36736612913139
 21
-89.29973784348839
 31
0.0
  0
LINE
  5
13F
330
1F
100
AcDbEntity
  8
0
100
AcDbLine
 10
-154.2994545581467
 20
-92.97689643748836
 30
0.0
 11
-153.7841924512264
 21
-93.06114814880355
 31
0.0
  0
LINE
  5
140
330
1F
100
AcDbEntity
  8
0
100
AcDbLine
 10
-152.0218101354544
 20
-92.11562788299543
 30
0.0
 11
-151.8070695850953
 21
-91.63972885408387
 31
0.0
  0
LINE
  5
141
330
1F
100
AcDbEntity
  8
0
100
AcDbLine
 10
-159.7218458633232
 20
-167.0621201592604
 30
0.0
 11
-159.7218458633232
 21
-137.0621201592604
 31
0.0
  0
LINE
  5
142
330
1F
100
AcDbEntity
  8
0
100
AcDbLine
 10
-159.7218458633232
 20
-167.0621201592604
 30
0.0
 11
-162.7218458633233
 21
-167.0621201592604
 31
0.0
  0
LINE
  5
143
330
1F
100
AcDbEntity
  8
0
100
AcDbLine
 10
-162.7545495332775
 20
-61.92370039291639
 30
0.0
 11
-162.7545495332775
 21
28.07629960708363
 31
0.0
  0
LINE
  5
144
330
1F
100
AcDbEntity
  8
0
100
AcDbLine
 10
-41.50706958509533
 20
-91.63972885408387
 30
0.0
 11
-41.4228178737801
 21
-91.12446674716361
 31
0.0
  0
LINE
  5
145
330
1F
100
AcDbEntity
  8
0
100
AcDbLine
 10
-154.1790101992733
 20
-89.1150709123395
 30
0.0
 11
-154.6673661291314
 21
-89.29973784348839
 31
0.0
  0
LINE
  5
146
330
1F
100
AcDbEntity
  8
0
100
AcDbLine
 10
15.5781541366774
 20
-218.0621201592604
 30
0.0
 11
15.5781541366774
 21
-215.0621201592604
 31
0.0
  0
LINE
  5
147
330
1F
100
AcDbEntity
  8
0
100
AcDbLine
 10
-42.9646815273732
 20
-93.00916940618137
 30
0.0
 11
-42.47632559751513
 21
-92.82450247503249
 31
0.0
  0
LINE
  5
148
330
1F
100
AcDbEntity
  8
0
100
AcDbLine
 10
40.5781541366774
 20
-187.0621201592604
 30
0.0
 11
40.5781541366774
 21
-222.0621201592604
 31
0.0
  0
LINE
  5
149
330
1F
100
AcDbEntity
  8
0
100
AcDbLine
 10
-45.36889511024419
 20
-91.51928449521054
 30
0.0
 11
-45.18422817909536
 21
-92.00764042506857
 31
0.0
  0
LINE
  5
14A
330
1F
100
AcDbEntity
  8
0
100
AcDbLine
 10
-155.4218815911921
 20
-90.00861243552545
 30
0.0
 11
-155.6366221415512
 21
-90.48451146443702
 31
0.0
  0
LINE
  5
14B
330
1F
100
AcDbEntity
  8
0
100
AcDbLine
 10
-134.7218458633232
 20
-218.0621201592604
 30
0.0
 11
-134.7218458633232
 21
-215.0621201592604
 31
0.0
  0
LINE
  5
14C
330
1F
100
AcDbEntity
  8
0
100
AcDbLine
 10
-69.72184586332324
 20
-137.0621201592604
 30
0.0
 11
-69.72184586332324
 21
-167.0621201592604
 31
0.0
  0
LINE
  5
14D
330
1F
100
AcDbEntity
  8
0
100
AcDbLine
 10
-155.4842281790954
 20
-92.00764042506857
 30
0.0
 11
-155.1794578056011
 21
-92.43156071135795
 31
0.0
  0
LINE
  5
14E
330
1F
100
AcDbEntity
  8
0
100
AcDbLine
 10
-155.1794578056011
 20
-92.43156071135795
 30
0.0
 11
-154.7753535870582
 21
-92.76215588712932
 31
0.0
  0
LINE
  5
14F
330
1F
100
AcDbEntity
  8
0
100
AcDbLine
 10
-52.42184586332329
 20
-187.0621201592604
 30
0.0
 11
-49.42184586332325
 21
-187.0621201592604
 31
0.0
  0
LINE
  5
150
330
1F
100
AcDbEntity
  8
0
100
AcDbLine
 10
-49.42184586332325
 20
-87.06212015926045
 30
0.0
 11
-31.92184586332317
 21
-87.06212015926045
 31
0.0
  0
LINE
  5
151
330
1F
100
AcDbEntity
  8
0
100
AcDbLine
 10
-42.0524053112258
 20
-92.51973210153827
 30
0.0
 11
-41.72181013545437
 21
-92.11562788299543
 31
0.0
  0
LINE
  5
152
330
1F
100
AcDbEntity
  8
0
100
AcDbLine
 10
-24.42184586332325
 20
-218.0621201592604
 30
0.0
 11
15.5781541366774
 21
-218.0621201592604
 31
0.0
  0
LINE
  5
153
330
1F
100
AcDbEntity
  8
0
100
AcDbLine
 10
-154.7753535870582
 20
-92.76215588712932
 30
0.0
 11
-154.2994545581467
 21
-92.97689643748836
 31
0.0
  0
LINE
  5
154
330
1F
100
AcDbEntity
  8
0
100
AcDbLine
 10
-49.42184586332325
 20
-167.0621201592604
 30
0.0
 11
-52.42184586332329
 21
-167.0621201592604
 31
0.0
  0
LINE
  5
155
330
1F
100
AcDbEntity
  8
0
100
AcDbLine
 10
-44.87945780560113
 20
-92.43156071135795
 30
0.0
 11
-44.4753535870582
 21
-92.76215588712932
 31
0.0
  0
LINE
  5
156
330
1F
100
AcDbEntity
  8
0
100
AcDbLine
 10
-69.72184586332324
 20
-222.0621201592604
 30
0.0
 11
-159.7218458633232
 21
-222.0621201592604
 31
0.0
  0
LINE
  5
157
330
1F
100
AcDbEntity
  8
0
100
AcDbLine
 10
13.09192909384312
 20
-65.17992668827812
 30
0.0
 11
-6.90807090615684
 21
-65.17992668827812
 31
0.0
  0
LINE
  5
158
330
1F
100
AcDbEntity
  8
0
100
AcDbLine
 10
-44.36736612913139
 20
-89.29973784348839
 30
0.0
 11
-44.79128641542071
 21
-89.60450821698262
 31
0.0
  0
LINE
  5
159
330
1F
100
AcDbEntity
  8
0
100
AcDbLine
 10
-82.72184586332325
 20
-92.06212015926045
 30
0.0
 11
-99.72184586332327
 21
-92.06212015926045
 31
0.0
  0
LINE
  5
15A
330
1F
100
AcDbEntity
  8
0
100
AcDbLine
 10
-66.7218458633232
 20
-137.0621201592604
 30
0.0
 11
-66.7218458633232
 21
-117.0621201592604
 31
0.0
  0
LINE
  5
15B
330
1F
100
AcDbEntity
  8
0
100
AcDbLine
 10
-151.7747966164023
 20
-90.60495582331033
 30
0.0
 11
-151.9594635475512
 21
-90.1165998934523
 31
0.0
  0
LINE
  5
15C
330
1F
100
AcDbEntity
  8
0
100
AcDbLine
 10
-151.7228178737801
 20
-91.12446674716361
 30
0.0
 11
-151.7747966164023
 21
-90.60495582331033
 31
0.0
  0
LINE
  5
15D
330
1F
100
AcDbEntity
  8
0
100
AcDbLine
 10
40.5781541366774
 20
-137.0621201592604
 30
0.0
 11
40.5781541366774
 21
-167.0621201592604
 31
0.0
  0
LINE
  5
15E
330
1F
100
AcDbEntity
  8
0
100
AcDbLine
 10
-41.65946354755116
 20
-90.1165998934523
 30
0.0
 11
-41.96423392104539
 21
-89.69267960716294
 31
0.0
  0
LINE
  5
15F
330
1F
100
AcDbEntity
  8
0
100
AcDbLine
 10
-162.7218458633233
 20
-187.0621201592604
 30
0.0
 11
-159.7218458633232
 21
-187.0621201592604
 31
0.0
  0
LINE
  5
160
330
1F
100
AcDbEntity
  8
0
100
AcDbLine
 10
-153.6594992754201
 20
-89.06309216971732
 30
0.0
 11
-154.1790101992733
 21
-89.1150709123395
 31
0.0
  0
LINE
  5
161
330
1F
100
AcDbEntity
  8
0
100
AcDbLine
 10
-59.76126332527704
 20
25.07629960708364
 30
0.0
 11
-59.76126332527704
 21
3.076299607083631
 31
0.0
  0
LINE
  5
162
330
1F
100
AcDbEntity
  8
0
100
AcDbLine
 10
-43.99945455814673
 20
-92.97689643748836
 30
0.0
 11
-43.48419245122638
 21
-93.06114814880355
 31
0.0
  0
LINE
  5
163
330
1F
100
AcDbEntity
  8
0
100
AcDbLine
 10
-56.76126332527701
 20
3.076299607083631
 30
0.0
 11
-56.76126332527701
 21
-36.92370039291639
 31
0.0
  0
LINE
  5
164
330
1F
100
AcDbEntity
  8
0
100
AcDbLine
 10
-153.7841924512264
 20
-93.06114814880355
 30
0.0
 11
-153.2646815273732
 21
-93.00916940618137
 31
0.0
  0
LINE
  5
165
330
1F
100
AcDbEntity
  8
0
100
AcDbLine
 10
-69.72184586332324
 20
-187.0621201592604
 30
0.0
 11
-69.72184586332324
 21
-222.0621201592604
 31
0.0
  0
LINE
  5
166
330
1F
100
AcDbEntity
  8
0
100
AcDbLine
 10
-162.7218458633233
 20
-137.0621201592604
 30
0.0
 11
-159.7218458633232
 21
-137.0621201592604
 31
0.0
  0
LINE
  5
167
330
1F
100
AcDbEntity
  8
0
100
AcDbLine
 10
-66.7218458633232
 20
-187.0621201592604
 30
0.0
 11
-66.7218458633232
 21
-167.0621201592604
 31
0.0
  0
LINE
  5
168
330
1F
100
AcDbEntity
  8
0
100
AcDbLine
 10
-69.72184586332324
 20
-137.0621201592604
 30
0.0
 11
-66.7218458633232
 21
-137.0621201592604
 31
0.0
  0
LINE
  5
169
330
1F
100
AcDbEntity
  8
0
100
AcDbLine
 10
-159.7218458633232
 20
-117.0621201592604
 30
0.0
 11
-159.7218458633232
 21
-87.06212015926045
 31
0.0
  0
LINE
  5
16A
330
1F
100
AcDbEntity
  8
0
100
AcDbLine
 10
-69.72184586332324
 20
-187.0621201592604
 30
0.0
 11
-66.7218458633232
 21
-187.0621201592604
 31
0.0
  0
LINE
  5
16B
330
1F
100
AcDbEntity
  8
0
100
AcDbLine
 10
-159.7218458633232
 20
-117.0621201592604
 30
0.0
 11
-162.7218458633233
 21
-117.0621201592604
 31
0.0
  0
LINE
  5
16C
330
1F
100
AcDbEntity
  8
0
100
AcDbLine
 10
-94.72184586332324
 20
-218.0621201592604
 30
0.0
 11
-94.72184586332324
 21
-215.0621201592604
 31
0.0
  0
LINE
  5
16D
330
1F
100
AcDbEntity
  8
0
100
AcDbLine
 10
43.57815413667744
 20
-137.0621201592604
 30
0.0
 11
43.57815413667744
 21
-117.0621201592604
 31
0.0
  0
LINE
  5
16E
330
1F
100
AcDbEntity
  8
0
100
AcDbLine
 10
-49.42184586332325
 20
-117.0621201592604
 30
0.0
 11
-52.42184586332329
 21
-117.0621201592604
 31
0.0
  0
LINE
  5
16F
330
1F
100
AcDbEntity
  8
0
100
AcDbLine
 10
-159.7218458633232
 20
-87.06212015926045
 30
0.0
 11
-102.7218458633233
 21
-87.06212015926045
 31
0.0
  0
LINE
  5
170
330
1F
100
AcDbEntity
  8
0
100
AcDbLine
 10
-49.42184586332325
 20
-167.0621201592604
 30
0.0
 11
-49.42184586332325
 21
-137.0621201592604
 31
0.0
  0
LINE
  5
171
330
1F
100
AcDbEntity
  8
0
100
AcDbLine
 10
40.5781541366774
 20
-187.0621201592604
 30
0.0
 11
43.57815413667744
 21
-187.0621201592604
 31
0.0
  0
LINE
  5
172
330
1F
100
AcDbEntity
  8
0
100
AcDbLine
 10
-52.42184586332329
 20
-137.0621201592604
 30
0.0
 11
-49.42184586332325
 21
-137.0621201592604
 31
0.0
  0
LINE
  5
173
330
1F
100
AcDbEntity
  8
0
100
AcDbLine
 10
-159.7218458633232
 20
-222.0621201592604
 30
0.0
 11
-159.7218458633232
 21
-187.0621201592604
 31
0.0
  0
LINE
  5
174
330
1F
100
AcDbEntity
  8
0
100
AcDbLine
 10
-49.42184586332325
 20
-117.0621201592604
 30
0.0
 11
-49.42184586332325
 21
-87.06212015926045
 31
0.0
  0
LINE
  5
175
330
1F
100
AcDbEntity
  8
0
100
AcDbLine
 10
-102.7218458633233
 20
-122.0621201592604
 30
0.0
 11
-102.7218458633233
 21
-87.06212015926045
 31
0.0
  0
LINE
  5
176
330
1F
100
AcDbEntity
  8
0
100
AcDbLine
 10
-134.7218458633232
 20
-218.0621201592604
 30
0.0
 11
-94.72184586332324
 21
-218.0621201592604
 31
0.0
  0
LINE
  5
177
330
1F
100
AcDbEntity
  8
0
100
AcDbLine
 10
-82.72184586332325
 20
-87.06212015926045
 30
0.0
 11
-82.72184586332325
 21
-92.06212015926045
 31
0.0
  0
LINE
  5
178
330
1F
100
AcDbEntity
  8
0
100
AcDbLine
 10
-82.72184586332325
 20
-87.06212015926045
 30
0.0
 11
-69.72184586332324
 21
-87.06212015926045
 31
0.0
  0
LINE
  5
179
330
1F
100
AcDbEntity
  8
0
100
AcDbLine
 10
40.5781541366774
 20
-87.06212015926045
 30
0.0
 11
40.5781541366774
 21
-117.0621201592604
 31
0.0
  0
LINE
  5
17A
330
1F
100
AcDbEntity
  8
0
100
AcDbLine
 10
-162.7218458633233
 20
-187.0621201592604
 30
0.0
 11
-162.7218458633233
 21
-167.0621201592604
 31
0.0
  0
LINE
  5
17B
330
1F
100
AcDbEntity
  8
0
100
AcDbLine
 10
27.5781541366772
 20
-87.06212015926045
 30
0.0
 11
27.5781541366772
 21
-92.06212015926045
 31
0.0
  0
LINE
  5
17C
330
1F
100
AcDbEntity
  8
0
100
AcDbLine
 10
-66.7218458633232
 20
-167.0621201592604
 30
0.0
 11
-69.72184586332324
 21
-167.0621201592604
 31
0.0
  0
LINE
  5
17D
330
1F
100
AcDbEntity
  8
0
100
AcDbLine
 10
43.57815413667744
 20
-187.0621201592604
 30
0.0
 11
43.57815413667744
 21
-167.0621201592604
 31
0.0
  0
LINE
  5
17E
330
1F
100
AcDbEntity
  8
0
100
AcDbLine
 10
43.57815413667744
 20
-117.0621201592604
 30
0.0
 11
40.5781541366774
 21
-117.0621201592604
 31
0.0
  0
LINE
  5
17F
330
1F
100
AcDbEntity
  8
0
100
AcDbLine
 10
-24.42184586332325
 20
-218.0621201592604
 30
0.0
 11
-24.42184586332325
 21
-215.0621201592604
 31
0.0
  0
LINE
  5
180
330
1F
100
AcDbEntity
  8
0
100
AcDbLine
 10
7.578154136677053
 20
-122.0621201592604
 30
0.0
 11
7.578154136677053
 21
-87.06212015926045
 31
0.0
  0
LINE
  5
181
330
1F
100
AcDbEntity
  8
0
100
AcDbLine
 10
27.5781541366772
 20
-92.06212015926045
 30
0.0
 11
10.57815413667709
 21
-92.06212015926045
 31
0.0
  0
LINE
  5
182
330
1F
100
AcDbEntity
  8
0
100
AcDbLine
 10
-52.42184586332329
 20
-137.0621201592604
 30
0.0
 11
-52.42184586332329
 21
-117.0621201592604
 31
0.0
  0
LINE
  5
183
330
1F
100
AcDbEntity
  8
0
100
AcDbLine
 10
-52.42184586332329
 20
-187.0621201592604
 30
0.0
 11
-52.42184586332329
 21
-167.0621201592604
 31
0.0
  0
LINE
  5
184
330
1F
100
AcDbEntity
  8
0
100
AcDbLine
 10
-162.7218458633233
 20
-137.0621201592604
 30
0.0
 11
-162.7218458633233
 21
-117.0621201592604
 31
0.0
  0
LINE
  5
185
330
1F
100
AcDbEntity
  8
0
100
AcDbLine
 10
40.5781541366774
 20
-137.0621201592604
 30
0.0
 11
43.57815413667744
 21
-137.0621201592604
 31
0.0
  0
LINE
  5
186
330
1F
100
AcDbEntity
  8
0
100
AcDbLine
 10
86.63741364337434
 20
-136.6969381146478
 30
0.0
 11
81.63741364337432
 21
-136.6969381146478
 31
0.0
  0
LINE
  5
187
330
1F
100
AcDbEntity
  8
0
100
AcDbLine
 10
76.15505173357938
 20
-104.7650864620697
 30
0.0
 11
75.63741364337432
 21
-104.6969381146479
 31
0.0
  0
LINE
  5
188
330
1F
100
AcDbEntity
  8
0
100
AcDbLine
 10
89.63741364337439
 20
-190.8969381146478
 30
0.0
 11
86.63741364337434
 21
-190.8969381146478
 31
0.0
  0
LINE
  5
189
330
1F
100
AcDbEntity
  8
0
100
AcDbLine
 10
81.63741364337432
 20
-124.6969381146479
 30
0.0
 11
81.63741364337432
 21
-136.6969381146478
 31
0.0
  0
LINE
  5
18A
330
1F
100
AcDbEntity
  8
0
100
AcDbLine
 10
75.63741364337432
 20
-108.6969381146479
 30
0.0
 11
76.15505173357938
 21
-108.628789767226
 31
0.0
  0
LINE
  5
18B
330
1F
100
AcDbEntity
  8
0
100
AcDbLine
 10
81.43296860110873
 20
-123.1440238440328
 30
0.0
 11
80.83356606608102
 21
-121.6969381146479
 31
0.0
  0
LINE
  5
18C
330
1F
100
AcDbEntity
  8
0
100
AcDbLine
 10
69.8418586856399
 20
-123.1440238440328
 30
0.0
 11
69.63741364337433
 21
-124.6969381146479
 31
0.0
  0
LINE
  5
18D
330
1F
100
AcDbEntity
  8
0
100
AcDbLine
 10
73.63741364337433
 20
-106.6969381146479
 30
0.0
 11
73.70556199079624
 21
-107.2145762048529
 31
0.0
  0
LINE
  5
18E
330
1F
100
AcDbEntity
  8
0
100
AcDbLine
 10
64.6374136433743
 20
-106.6969381146479
 30
0.0
 11
61.63741364337426
 21
-106.6969381146479
 31
0.0
  0
LINE
  5
18F
330
1F
100
AcDbEntity
  8
0
100
AcDbLine
 10
69.63741364337433
 20
-124.6969381146479
 30
0.0
 11
69.63741364337433
 21
-136.6969381146478
 31
0.0
  0
LINE
  5
190
330
1F
100
AcDbEntity
  8
0
100
AcDbLine
 10
74.63741364337437
 20
-108.4289889222168
 30
0.0
 11
75.11977555316925
 21
-108.628789767226
 31
0.0
  0
LINE
  5
191
330
1F
100
AcDbEntity
  8
0
100
AcDbLine
 10
86.63741364337434
 20
-150.8969381146478
 30
0.0
 11
86.63741364337434
 21
-180.8969381146478
 31
0.0
  0
LINE
  5
192
330
1F
100
AcDbEntity
  8
0
100
AcDbLine
 10
64.6374136433743
 20
-136.6969381146478
 30
0.0
 11
64.6374136433743
 21
-106.6969381146479
 31
0.0
  0
LINE
  5
193
330
1F
100
AcDbEntity
  8
0
100
AcDbLine
 10
77.36946445094318
 20
-107.6969381146479
 30
0.0
 11
77.56926529595239
 21
-107.2145762048529
 31
0.0
  0
LINE
  5
194
330
1F
100
AcDbEntity
  8
0
100
AcDbLine
 10
89.63741364337439
 20
-96.69693811464792
 30
0.0
 11
89.63741364337439
 21
-106.6969381146479
 31
0.0
  0
LINE
  5
195
330
1F
100
AcDbEntity
  8
0
100
AcDbLine
 10
81.63741364337432
 20
-124.6969381146479
 30
0.0
 11
81.43296860110873
 21
-123.1440238440328
 31
0.0
  0
LINE
  5
196
330
1F
100
AcDbEntity
  8
0
100
AcDbLine
 10
72.63741364337429
 20
-119.5007856919413
 30
0.0
 11
71.39477295625503
 21
-120.4542974275286
 31
0.0
  0
LINE
  5
197
330
1F
100
AcDbEntity
  8
0
100
AcDbLine
 10
61.63741364337426
 20
-190.8969381146478
 30
0.0
 11
61.63741364337426
 21
-180.8969381146478
 31
0.0
  0
LINE
  5
198
330
1F
100
AcDbEntity
  8
0
100
AcDbLine
 10
76.63741364337427
 20
-104.964887307079
 30
0.0
 11
76.15505173357938
 21
-104.7650864620697
 31
0.0
  0
LINE
  5
199
330
1F
100
AcDbEntity
  8
0
100
AcDbLine
 10
76.63741364337427
 20
-108.4289889222168
 30
0.0
 11
77.05162720574742
 21
-108.111151677021
 31
0.0
  0
LINE
  5
19A
330
1F
100
AcDbEntity
  8
0
100
AcDbLine
 10
61.63741364337426
 20
-96.69693811464792
 30
0.0
 11
64.6374136433743
 21
-96.69693811464792
 31
0.0
  0
LINE
  5
19B
330
1F
100
AcDbEntity
  8
0
100
AcDbLine
 10
73.90536283580545
 20
-105.6969381146479
 30
0.0
 11
73.70556199079624
 21
-106.1793000244428
 31
0.0
  0
LINE
  5
19C
330
1F
100
AcDbEntity
  8
0
100
AcDbLine
 10
86.63741364337434
 20
-106.6969381146479
 30
0.0
 11
86.63741364337434
 21
-136.6969381146478
 31
0.0
  0
LINE
  5
19D
330
1F
100
AcDbEntity
  8
0
100
AcDbLine
 10
70.63741364337429
 20
-66.69693811464775
 30
0.0
 11
70.63741364337429
 21
-63.69693811464771
 31
0.0
  0
LINE
  5
19E
330
1F
100
AcDbEntity
  8
0
100
AcDbLine
 10
86.63741364337434
 20
-66.69693811464775
 30
0.0
 11
86.63741364337434
 21
-96.69693811464792
 31
0.0
  0
LINE
  5
19F
330
1F
100
AcDbEntity
  8
0
100
AcDbLine
 10
80.83356606608102
 20
-121.6969381146479
 30
0.0
 11
79.88005433049362
 21
-120.4542974275286
 31
0.0
  0
LINE
  5
1A0
330
1F
100
AcDbEntity
  8
0
100
AcDbLine
 10
-28.1718458633233
 20
-97.22718366872154
 30
0.0
 11
-27.6540789103568
 21
-96.82988711222683
 31
0.0
  0
LINE
  5
1A1
330
1F
100
AcDbEntity
  8
0
100
AcDbLine
 10
70.63741364337437
 20
-147.8969381146478
 30
0.0
 11
80.63741364337427
 21
-147.8969381146478
 31
0.0
  0
LINE
  5
1A2
330
1F
100
AcDbEntity
  8
0
100
AcDbLine
 10
71.39477295625503
 20
-120.4542974275286
 30
0.0
 11
70.44126122066763
 21
-121.6969381146478
 31
0.0
  0
LINE
  5
1A3
330
1F
100
AcDbEntity
  8
0
100
AcDbLine
 10
73.70556199079624
 20
-107.2145762048529
 30
0.0
 11
73.90536283580545
 21
-107.6969381146479
 31
0.0
  0
LINE
  5
1A4
330
1F
100
AcDbEntity
  8
0
100
AcDbLine
 10
74.22320008100122
 20
-108.111151677021
 30
0.0
 11
74.63741364337437
 21
-108.4289889222168
 31
0.0
  0
LINE
  5
1A5
330
1F
100
AcDbEntity
  8
0
100
AcDbLine
 10
61.63741364337426
 20
-180.8969381146478
 30
0.0
 11
64.6374136433743
 21
-180.8969381146478
 31
0.0
  0
LINE
  5
1A6
330
1F
100
AcDbEntity
  8
0
100
AcDbLine
 10
74.08449937275921
 20
-118.9013831569135
 30
0.0
 11
72.63741364337429
 21
-119.5007856919413
 31
0.0
  0
LINE
  5
1A7
330
1F
100
AcDbEntity
  8
0
100
AcDbLine
 10
75.63741364337432
 20
-118.6969381146479
 30
0.0
 11
74.08449937275921
 21
-118.9013831569135
 31
0.0
  0
LINE
  5
1A8
330
1F
100
AcDbEntity
  8
0
100
AcDbLine
 10
78.63741364337436
 20
-119.5007856919413
 30
0.0
 11
77.19032791398944
 21
-118.9013831569135
 31
0.0
  0
LINE
  5
1A9
330
1F
100
AcDbEntity
  8
0
100
AcDbLine
 10
69.63741364337433
 20
-136.6969381146478
 30
0.0
 11
64.6374136433743
 21
-136.6969381146478
 31
0.0
  0
LINE
  5
1AA
330
1F
100
AcDbEntity
  8
0
100
AcDbLine
 10
61.63741364337426
 20
-106.6969381146479
 30
0.0
 11
61.63741364337426
 21
-96.69693811464792
 31
0.0
  0
LINE
  5
1AB
330
1F
100
AcDbEntity
  8
0
100
AcDbLine
 10
64.6374136433743
 20
-190.8969381146478
 30
0.0
 11
61.63741364337426
 21
-190.8969381146478
 31
0.0
  0
LINE
  5
1AC
330
1F
100
AcDbEntity
  8
0
100
AcDbLine
 10
76.15505173357938
 20
-108.628789767226
 30
0.0
 11
76.63741364337427
 21
-108.4289889222168
 31
0.0
  0
LINE
  5
1AD
330
1F
100
AcDbEntity
  8
0
100
AcDbLine
 10
64.6374136433743
 20
-180.8969381146478
 30
0.0
 11
64.6374136433743
 21
-150.8969381146478
 31
0.0
  0
LINE
  5
1AE
330
1F
100
AcDbEntity
  8
0
100
AcDbLine
 10
64.6374136433743
 20
-96.69693811464792
 30
0.0
 11
64.6374136433743
 21
-66.69693811464775
 31
0.0
  0
LINE
  5
1AF
330
1F
100
AcDbEntity
  8
0
100
AcDbLine
 10
64.6374136433743
 20
-66.69693811464775
 30
0.0
 11
70.63741364337429
 21
-66.69693811464775
 31
0.0
  0
LINE
  5
1B0
330
1F
100
AcDbEntity
  8
0
100
AcDbLine
 10
70.63741364337429
 20
-63.69693811464771
 30
0.0
 11
80.63741364337427
 21
-63.69693811464771
 31
0.0
  0
LINE
  5
1B1
330
1F
100
AcDbEntity
  8
0
100
AcDbLine
 10
74.22320008100122
 20
-105.2827245522748
 30
0.0
 11
73.90536283580545
 21
-105.6969381146479
 31
0.0
  0
LINE
  5
1B2
330
1F
100
AcDbEntity
  8
0
100
AcDbLine
 10
73.90536283580545
 20
-107.6969381146479
 30
0.0
 11
74.22320008100122
 21
-108.111151677021
 31
0.0
  0
LINE
  5
1B3
330
1F
100
AcDbEntity
  8
0
100
AcDbLine
 10
89.63741364337439
 20
-180.8969381146478
 30
0.0
 11
89.63741364337439
 21
-190.8969381146478
 31
0.0
  0
LINE
  5
1B4
330
1F
100
AcDbEntity
  8
0
100
AcDbLine
 10
86.63741364337434
 20
-220.8969381146478
 30
0.0
 11
64.6374136433743
 21
-220.8969381146478
 31
0.0
  0
LINE
  5
1B5
330
1F
100
AcDbEntity
  8
0
100
AcDbLine
 10
70.44126122066763
 20
-121.6969381146478
 30
0.0
 11
69.8418586856399
 21
-123.1440238440328
 31
0.0
  0
LINE
  5
1B6
330
1F
100
AcDbEntity
  8
0
100
AcDbLine
 10
80.63741364337427
 20
-63.69693811464771
 30
0.0
 11
80.63741364337427
 21
-66.69693811464775
 31
0.0
  0
LINE
  5
1B7
330
1F
100
AcDbEntity
  8
0
100
AcDbLine
 10
77.05162720574742
 20
-108.111151677021
 30
0.0
 11
77.36946445094318
 21
-107.6969381146479
 31
0.0
  0
LINE
  5
1B8
330
1F
100
AcDbEntity
  8
0
100
AcDbLine
 10
64.6374136433743
 20
-220.8969381146478
 30
0.0
 11
64.6374136433743
 21
-190.8969381146478
 31
0.0
  0
LINE
  5
1B9
330
1F
100
AcDbEntity
  8
0
100
AcDbLine
 10
80.63741364337427
 20
-66.69693811464775
 30
0.0
 11
86.63741364337434
 21
-66.69693811464775
 31
0.0
  0
LINE
  5
1BA
330
1F
100
AcDbEntity
  8
0
100
AcDbLine
 10
64.6374136433743
 20
-150.8969381146478
 30
0.0
 11
70.63741364337437
 21
-150.8969381146478
 31
0.0
  0
LINE
  5
1BB
330
1F
100
AcDbEntity
  8
0
100
AcDbLine
 10
70.63741364337437
 20
-150.8969381146478
 30
0.0
 11
70.63741364337437
 21
-147.8969381146478
 31
0.0
  0
LINE
  5
1BC
330
1F
100
AcDbEntity
  8
0
100
AcDbLine
 10
89.63741364337439
 20
-106.6969381146479
 30
0.0
 11
86.63741364337434
 21
-106.6969381146479
 31
0.0
  0
LINE
  5
1BD
330
1F
100
AcDbEntity
  8
0
100
AcDbLine
 10
75.63741364337432
 20
-104.6969381146479
 30
0.0
 11
75.11977555316925
 21
-104.7650864620697
 31
0.0
  0
LINE
  5
1BE
330
1F
100
AcDbEntity
  8
0
100
AcDbLine
 10
79.88005433049362
 20
-120.4542974275286
 30
0.0
 11
78.63741364337436
 21
-119.5007856919413
 31
0.0
  0
LINE
  5
1BF
330
1F
100
AcDbEntity
  8
0
100
AcDbLine
 10
86.63741364337434
 20
-190.8969381146478
 30
0.0
 11
86.63741364337434
 21
-220.8969381146478
 31
0.0
  0
LINE
  5
1C0
330
1F
100
AcDbEntity
  8
0
100
AcDbLine
 10
86.63741364337434
 20
-180.8969381146478
 30
0.0
 11
89.63741364337439
 21
-180.8969381146478
 31
0.0
  0
LINE
  5
1C1
330
1F
100
AcDbEntity
  8
0
100
AcDbLine
 10
77.19032791398944
 20
-118.9013831569135
 30
0.0
 11
75.63741364337432
 21
-118.6969381146479
 31
0.0
  0
LINE
  5
1C2
330
1F
100
AcDbEntity
  8
0
100
AcDbLine
 10
80.63741364337427
 20
-147.8969381146478
 30
0.0
 11
80.63741364337427
 21
-150.8969381146478
 31
0.0
  0
LINE
  5
1C3
330
1F
100
AcDbEntity
  8
0
100
AcDbLine
 10
75.11977555316925
 20
-104.7650864620697
 30
0.0
 11
74.63741364337437
 21
-104.964887307079
 31
0.0
  0
LINE
  5
1C4
330
1F
100
AcDbEntity
  8
0
100
AcDbLine
 10
75.11977555316925
 20
-108.628789767226
 30
0.0
 11
75.63741364337432
 21
-108.6969381146479
 31
0.0
  0
LINE
  5
1C5
330
1F
100
AcDbEntity
  8
0
100
AcDbLine
 10
74.63741364337437
 20
-104.964887307079
 30
0.0
 11
74.22320008100122
 21
-105.2827245522748
 31
0.0
  0
LINE
  5
1C6
330
1F
100
AcDbEntity
  8
0
100
AcDbLine
 10
-2.421845863322929
 20
-110.0621201592604
 30
0.0
 11
-2.421845863322929
 21
-107.0621201592605
 31
0.0
  0
LINE
  5
1C7
330
1F
100
AcDbEntity
  8
0
100
AcDbLine
 10
-22.42184586332298
 20
-110.0621201592604
 30
0.0
 11
-2.421845863322929
 21
-110.0621201592604
 31
0.0
  0
LINE
  5
1C8
330
1F
100
AcDbEntity
  8
0
100
AcDbLine
 10
-22.42184586332298
 20
-107.0621201592605
 30
0.0
 11
-22.42184586332298
 21
-110.0621201592604
 31
0.0
  0
LINE
  5
1C9
330
1F
100
AcDbEntity
  8
0
100
AcDbLine
 10
-2.421845863322929
 20
-107.0621201592605
 30
0.0
 11
-22.42184586332298
 21
-107.0621201592605
 31
0.0
  0
LINE
  5
1CA
330
1F
100
AcDbEntity
  8
0
100
AcDbLine
 10
-132.7218458633233
 20
-110.0621201592604
 30
0.0
 11
-112.7218458633232
 21
-110.0621201592604
 31
0.0
  0
LINE
  5
1CB
330
1F
100
AcDbEntity
  8
0
100
AcDbLine
 10
-152.7545495332775
 20
-61.92370039291639
 30
0.0
 11
-162.7545495332775
 21
-61.92370039291639
 31
0.0
  0
LINE
  5
1CC
330
1F
100
AcDbEntity
  8
0
100
AcDbLine
 10
-132.7218458633233
 20
-107.0621201592605
 30
0.0
 11
-132.7218458633233
 21
-110.0621201592604
 31
0.0
  0
LINE
  5
1CD
330
1F
100
AcDbEntity
  8
0
100
AcDbLine
 10
-152.7545495332775
 20
25.07629960708364
 30
0.0
 11
-152.7545495332775
 21
28.07629960708363
 31
0.0
  0
LINE
  5
1CE
330
1F
100
AcDbEntity
  8
0
100
AcDbLine
 10
90.4981969290811
 20
-48.0360965053079
 30
0.0
 11
62.49819692908097
 21
-48.0360965053079
 31
0.0
  0
LINE
  5
1CF
330
1F
100
AcDbEntity
  8
0
100
AcDbLine
 10
62.49819692908097
 20
-13.03252244683191
 30
0.0
 11
62.49819692908097
 21
8.967477553168091
 31
0.0
  0
LINE
  5
1D0
330
1F
100
AcDbEntity
  8
0
100
AcDbLine
 10
62.49819692908097
 20
-26.03609650530785
 30
0.0
 11
90.4981969290811
 21
-26.03609650530785
 31
0.0
  0
LINE
  5
1D1
330
1F
100
AcDbEntity
  8
0
100
AcDbLine
 10
-112.7218458633232
 20
-110.0621201592604
 30
0.0
 11
-112.7218458633232
 21
-107.0621201592605
 31
0.0
  0
LINE
  5
1D2
330
1F
100
AcDbEntity
  8
0
100
AcDbLine
 10
62.49819692908097
 20
8.967477553168091
 30
0.0
 11
90.4981969290811
 21
8.967477553168091
 31
0.0
  0
LINE
  5
1D3
330
1F
100
AcDbEntity
  8
0
100
AcDbLine
 10
43.79068555384312
 20
24.8200733117219
 30
0.0
 11
43.79068555384312
 21
-65.17992668827812
 31
0.0
  0
LINE
  5
1D4
330
1F
100
AcDbEntity
  8
0
100
AcDbLine
 10
-27.6540789103568
 20
-96.82988711222683
 30
0.0
 11
-27.25678235386214
 21
-96.31212015926046
 31
0.0
  0
LINE
  5
1D5
330
1F
100
AcDbEntity
  8
0
100
AcDbLine
 10
-26.92184586332322
 20
-95.06212015926047
 30
0.0
 11
-26.92184586332322
 21
-87.06212015926045
 31
0.0
  0
LINE
  5
1D6
330
1F
100
AcDbEntity
  8
0
100
AcDbLine
 10
43.79068555384312
 20
-65.17992668827812
 30
0.0
 11
23.79068555384315
 21
-65.17992668827812
 31
0.0
  0
LINE
  5
1D7
330
1F
100
AcDbEntity
  8
0
100
AcDbLine
 10
40.5781541366774
 20
-222.0621201592604
 30
0.0
 11
-49.42184586332325
 21
-222.0621201592604
 31
0.0
  0
LINE
  5
1D8
330
1F
100
AcDbEntity
  8
0
100
AcDbLine
 10
-31.92184586332317
 20
-95.06212015926047
 30
0.0
 11
-31.83666042904584
 21
-95.70916777201677
 31
0.0
  0
LINE
  5
1D9
330
1F
100
AcDbEntity
  8
0
100
AcDbLine
 10
-30.67184586332327
 20
-97.22718366872154
 30
0.0
 11
-30.06889347607953
 21
-97.47693472498312
 31
0.0
  0
LINE
  5
1DA
330
1F
100
AcDbEntity
  8
0
100
AcDbLine
 10
-31.18961281628959
 20
-96.82988711222683
 30
0.0
 11
-30.67184586332327
 21
-97.22718366872154
 31
0.0
  0
LINE
  5
1DB
330
1F
100
AcDbEntity
  8
0
100
AcDbLine
 10
77.56926529595239
 20
-106.1793000244428
 30
0.0
 11
77.36946445094318
 21
-105.6969381146479
 31
0.0
  0
LINE
  5
1DC
330
1F
100
AcDbEntity
  8
0
100
AcDbLine
 10
-99.72184586332327
 20
-122.0621201592604
 30
0.0
 11
-99.72184586332327
 21
-92.06212015926045
 31
0.0
  0
LINE
  5
1DD
330
1F
100
AcDbEntity
  8
0
100
AcDbLine
 10
-31.83666042904584
 20
-95.70916777201677
 30
0.0
 11
-31.58690937278435
 21
-96.31212015926046
 31
0.0
  0
LINE
  5
1DE
330
1F
100
AcDbEntity
  8
0
100
AcDbLine
 10
-28.77479825056695
 20
-97.47693472498312
 30
0.0
 11
-28.1718458633233
 21
-97.22718366872154
 31
0.0
  0
LINE
  5
1DF
330
1F
100
AcDbEntity
  8
0
100
AcDbLine
 10
-49.42184586332325
 20
-222.0621201592604
 30
0.0
 11
-49.42184586332325
 21
-187.0621201592604
 31
0.0
  0
LINE
  5
1E0
330
1F
100
AcDbEntity
  8
0
100
AcDbLine
 10
-129.7218458633233
 20
-117.0621201592604
 30
0.0
 11
-129.7218458633233
 21
-131.0621201592604
 31
0.0
  0
LINE
  5
1E1
330
1F
100
AcDbEntity
  8
0
100
AcDbLine
 10
-31.58690937278435
 20
-96.31212015926046
 30
0.0
 11
-31.18961281628959
 21
-96.82988711222683
 31
0.0
  0
LINE
  5
1E2
330
1F
100
AcDbEntity
  8
0
100
AcDbLine
 10
10.57815413667709
 20
-122.0621201592604
 30
0.0
 11
10.57815413667709
 21
-92.06212015926045
 31
0.0
  0
LINE
  5
1E3
330
1F
100
AcDbEntity
  8
0
100
AcDbLine
 10
-120.7218458633233
 20
-131.0621201592604
 30
0.0
 11
-120.7218458633233
 21
-117.0621201592604
 31
0.0
  0
LINE
  5
1E4
330
1F
100
AcDbEntity
  8
0
100
AcDbLine
 10
-94.72184586332324
 20
-215.0621201592604
 30
0.0
 11
-134.7218458633232
 21
-215.0621201592604
 31
0.0
  0
LINE
  5
1E5
330
1F
100
AcDbEntity
  8
0
100
AcDbLine
 10
-112.7218458633232
 20
-107.0621201592605
 30
0.0
 11
-132.7218458633233
 21
-107.0621201592605
 31
0.0
  0
LINE
  5
1E6
330
1F
100
AcDbEntity
  8
0
100
AcDbLine
 10
23.79068555384315
 20
-65.17992668827812
 30
0.0
 11
23.79068555384315
 21
24.8200733117219
 31
0.0
  0
LINE
  5
1E7
330
1F
100
AcDbEntity
  8
0
100
AcDbLine
 10
-29.4218458633232
 20
-97.56212015926045
 30
0.0
 11
-28.77479825056695
 21
-97.47693472498312
 31
0.0
  0
LINE
  5
1E8
330
1F
100
AcDbEntity
  8
0
100
AcDbLine
 10
90.4981969290811
 20
8.967477553168091
 30
0.0
 11
90.4981969290811
 21
-13.03252244683191
 31
0.0
  0
LINE
  5
1E9
330
1F
100
AcDbEntity
  8
0
100
AcDbLine
 10
77.56926529595239
 20
-107.2145762048529
 30
0.0
 11
77.63741364337432
 21
-106.6969381146479
 31
0.0
  0
LINE
  5
1EA
330
1F
100
AcDbEntity
  8
0
100
AcDbLine
 10
-27.00703129760056
 20
-95.70916777201677
 30
0.0
 11
-26.92184586332322
 21
-95.06212015926047
 31
0.0
  0
LINE
  5
1EB
330
1F
100
AcDbEntity
  8
0
100
AcDbLine
 10
77.63741364337432
 20
-106.6969381146479
 30
0.0
 11
77.56926529595239
 21
-106.1793000244428
 31
0.0
  0
LINE
  5
1EC
330
1F
100
AcDbEntity
  8
0
100
AcDbLine
 10
-129.7218458633233
 20
-131.0621201592604
 30
0.0
 11
-120.7218458633233
 21
-131.0621201592604
 31
0.0
  0
LINE
  5
1ED
330
1F
100
AcDbEntity
  8
0
100
AcDbLine
 10
-30.06889347607953
 20
-97.47693472498312
 30
0.0
 11
-29.4218458633232
 21
-97.56212015926045
 31
0.0
  0
LINE
  5
1EE
330
1F
100
AcDbEntity
  8
0
100
AcDbLine
 10
77.05162720574742
 20
-105.2827245522748
 30
0.0
 11
76.63741364337427
 21
-104.964887307079
 31
0.0
  0
LINE
  5
1EF
330
1F
100
AcDbEntity
  8
0
100
AcDbLine
 10
-31.92184586332317
 20
-95.06212015926047
 30
0.0
 11
-31.92184586332317
 21
-87.06212015926045
 31
0.0
  0
LINE
  5
1F0
330
1F
100
AcDbEntity
  8
0
100
AcDbLine
 10
-152.7545495332775
 20
28.07629960708363
 30
0.0
 11
-162.7545495332775
 21
28.07629960708363
 31
0.0
  0
LINE
  5
1F1
330
1F
100
AcDbEntity
  8
0
100
AcDbLine
 10
-120.7218458633233
 20
-117.0621201592604
 30
0.0
 11
-129.7218458633233
 21
-117.0621201592604
 31
0.0
  0
LINE
  5
1F2
330
1F
100
AcDbEntity
  8
0
100
AcDbLine
 10
27.5781541366772
 20
-87.06212015926045
 30
0.0
 11
40.5781541366774
 21
-87.06212015926045
 31
0.0
  0
LINE
  5
1F3
330
1F
100
AcDbEntity
  8
0
100
AcDbLine
 10
62.49819692908097
 20
-48.0360965053079
 30
0.0
 11
62.49819692908097
 21
-26.03609650530785
 31
0.0
  0
LINE
  5
1F4
330
1F
100
AcDbEntity
  8
0
100
AcDbLine
 10
7.578154136677053
 20
-122.0621201592604
 30
0.0
 11
10.57815413667709
 21
-122.0621201592604
 31
0.0
  0
LINE
  5
1F5
330
1F
100
AcDbEntity
  8
0
100
AcDbLine
 10
-152.7545495332775
 20
25.07629960708364
 30
0.0
 11
-59.76126332527704
 21
25.07629960708364
 31
0.0
  0
LINE
  5
1F6
330
1F
100
AcDbEntity
  8
0
100
AcDbLine
 10
-102.7218458633233
 20
-122.0621201592604
 30
0.0
 11
-99.72184586332327
 21
-122.0621201592604
 31
0.0
  0
LINE
  5
1F7
330
1F
100
AcDbEntity
  8
0
100
AcDbLine
 10
-152.7545495332775
 20
-58.92370039291639
 30
0.0
 11
-152.7545495332775
 21
-61.92370039291639
 31
0.0
  0
LINE
  5
1F8
330
1F
100
AcDbEntity
  8
0
100
AcDbLine
 10
90.4981969290811
 20
-13.03252244683191
 30
0.0
 11
62.49819692908097
 21
-13.03252244683191
 31
0.0
  0
LINE
  5
1F9
330
1F
100
AcDbEntity
  8
0
100
AcDbLine
 10
23.79068555384315
 20
24.8200733117219
 30
0.0
 11
43.79068555384312
 21
24.8200733117219
 31
0.0
  0
LINE
  5
1FA
330
1F
100
AcDbEntity
  8
0
100
AcDbLine
 10
-27.25678235386214
 20
-96.31212015926046
 30
0.0
 11
-27.00703129760056
 21
-95.70916777201677
 31
0.0
  0
LINE
  5
1FB
330
1F
100
AcDbEntity
  8
0
100
AcDbLine
 10
77.36946445094318
 20
-105.6969381146479
 30
0.0
 11
77.05162720574742
 21
-105.2827245522748
 31
0.0
  0
LINE
  5
1FC
330
1F
100
AcDbEntity
  8
0
100
AcDbLine
 10
90.4981969290811
 20
-26.03609650530785
 30
0.0
 11
90.4981969290811
 21
-48.0360965053079
 31
0.0
  0
LINE
  5
1FD
330
1F
100
AcDbEntity
  8
0
100
AcDbLine
 10
-26.92184586332322
 20
-87.06212015926045
 30
0.0
 11
7.578154136677053
 21
-87.06212015926045
 31
0.0
  0
ENDSEC
  0
SECTION
  2
OBJECTS
  0
DICTIONARY
  5
C
330
0
100
AcDbDictionary
  3
ACAD_GROUP
350
D
  3
ACAD_LAYOUT
350
1A
  3
ACAD_MATERIAL
350
43
  3
ACAD_MLEADERSTYLE
350
6B
  3
ACAD_MLINESTYLE
350
17
  3
ACAD_PLOTSETTINGS
350
19
  3
ACAD_SCALELIST
350
47
  3
ACAD_VISUALSTYLE
350
2A
  3
ACDBHEADERROUNDTRIPXREC
350
1FE
  3
ACDBVARIABLEDICTIONARY
350
21F
  0
DICTIONARY
  5
226
330
8
100
AcDbDictionary
280
     1
  3
ACAD_XREC_ROUNDTRIP
360
227
  0
DICTIONARY
  5
D
102
{ACAD_REACTORS
330
C
102
}
330
C
100
AcDbDictionary
  0
DICTIONARY
  5
1A
102
{ACAD_REACTORS
330
C
102
}
330
C
100
AcDbDictionary
  0
DICTIONARY
  5
43
102
{ACAD_REACTORS
330
C
102
}
330
C
100
AcDbDictionary
  3
BYBLOCK
350
45
  3
BYLAYER
350
44
  3
GLOBAL
350
46
  0
DICTIONARY
  5
6B
102
{ACAD_REACTORS
330
C
102
}
330
C
100
AcDbDictionary
  3
STANDARD
350
6C
  0
DICTIONARY
  5
17
102
{ACAD_REACTORS
330
C
102
}
330
C
100
AcDbDictionary
  3
STANDARD
350
18
  0
DICTIONARY
  5
19
102
{ACAD_REACTORS
330
C
102
}
330
C
100
AcDbDictionary
  0
DICTIONARY
  5
47
102
{ACAD_REACTORS
330
C
102
}
330
C
100
AcDbDictionary
  3
A0
350
48
  3
A1
350
49
  3
A2
350
4A
  3
A3
350
4B
  3
A4
350
4C
  3
A5
350
4D
  3
A6
350
4E
  3
A7
350
4F
  3
A8
350
50
  3
A9
350
51
  3
B0
350
52
  3
B1
350
53
  3
B2
350
54
  3
B3
350
55
  3
B4
350
56
  3
B5
350
57
  3
B6
350
58
  3
B7
350
59
  3
B8
350
5A
  3
B9
350
5B
  3
C0
350
5C
  3
C1
350
5D
  3
C2
350
5E
  3
C3
350
5F
  3
C4
350
60
  3
C5
350
61
  3
C6
350
62
  3
C7
350
63
  3
C8
350
64
  3
C9
350
65
  3
D0
350
66
  3
D1
350
67
  3
D2
350
68
  0
DICTIONARY
  5
2A
102
{ACAD_REACTORS
330
C
102
}
330
C
100
AcDbDictionary
  3
2DWIREFRAME
350
2F
  3
BASIC
350
32
  3
BRIGHTEN
350
36
  3
COLORCHANGE
350
3A
  3
CONCEPTUAL
350
34
  3
DIM
350
35
  3
EDGECOLOROFF
350
3D
  3
FACEPATTERN
350
39
  3
FLAT
350
2B
  3
FLATWITHEDGES
350
2C
  3
GOURAUD
350
2D
  3
GOURAUDWITHEDGES
350
2E
  3
HIDDEN
350
31
  3
JITTEROFF
350
3B
  3
LINEPATTERN
350
38
  3
OVERHANGOFF
350
3C
  3
REALISTIC
350
33
  3
SHADED
350
42
  3
SHADED_WITH_EDGES
350
41
  3
SHADES_OF_GRAY
350
3E
  3
SKETCHY
350
3F
  3
THICKEN
350
37
  3
WIREFRAME
350
30
  3
X-RAY
350
40
  0
DICTIONARY
  5
1FE
102
{ACAD_REACTORS
330
C
102
}
330
C
100
AcDbDictionary
  3
CEPSNID
350
208
  3
CEPSNTYPE
350
207
  3
DIMSTYLEDATA
350
21E
  3
FINGERPRINTGUID
350
209
  3
HYPERLINKBASE
350
201
  3
INSUNITS
350
206
  3
LAYOUTDICT
350
203
  3
LWETCUNION
350
205
  3
PLOTSETDICT
350
204
  3
PSVPSCALE
350
20B
  3
PUCSBASE
350
20E
  3
PUCSORGBACK
350
214
  3
PUCSORGBOTTOM
350
210
  3
PUCSORGFRONT
350
213
  3
PUCSORGLEFT
350
211
  3
PUCSORGRIGHT
350
212
  3
PUCSORGTOP
350
20F
  3
PUCSORTHOREF
350
20C
  3
PUCSORTHOVIEW
350
20D
  3
STYLESHEET
350
202
  3
TSTACKALIGN
350
1FF
  3
TSTACKSIZE
350
200
  3
UCSBASE
350
217
  3
UCSORGBACK
350
21D
  3
UCSORGBOTTOM
350
219
  3
UCSORGFRONT
350
21C
  3
UCSORGLEFT
350
21A
  3
UCSORGRIGHT
350
21B
  3
UCSORGTOP
350
218
  3
UCSORTHOREF
350
215
  3
UCSORTHOVIEW
350
216
  3
VERSIONGUID
350
20A
  0
DICTIONARY
  5
21F
102
{ACAD_REACTORS
330
C
102
}
330
C
100
AcDbDictionary
  3
CANNOSCALE
350
228
  3
CMLEADERSTYLE
350
221
  3
CTABLESTYLE
350
220
  3
DIMASSOC
350
224
  3
HIDETEXT
350
225
  3
MSLTSCALE
350
229
  0
XRECORD
  5
227
102
{ACAD_REACTORS
330
226
102
}
330
226
100
AcDbXrecord
102
VTR_0.000_0.000_1.000_1.000_VISUALSTYLE
340
2F
102
VTR_0.000_0.000_1.000_1.000_GRIDDISPLAY
 70
     3
102
VTR_0.000_0.000_1.000_1.000_GRIDMAJOR
 70
     5
102
VTR_0.000_0.000_1.000_1.000_DEFAULTLIGHTING
280
     1
102
VTR_0.000_0.000_1.000_1.000_DEFAULTLIGHTINGTYPE
 70
     1
102
VTR_0.000_0.000_1.000_1.000_BRIGHTNESS
141
0.0
102
VTR_0.000_0.000_1.000_1.000_CONTRAST
142
0.0
  0
MATERIAL
  5
45
102
{ACAD_REACTORS
330
43
102
}
102
{ACAD_XDICTIONARY
360
22C
102
}
330
43
100
AcDbMaterial
  1
BYBLOCK
  0
MATERIAL
  5
44
102
{ACAD_REACTORS
330
43
102
}
102
{ACAD_XDICTIONARY
360
22A
102
}
330
43
100
AcDbMaterial
  1
BYLAYER
  0
MATERIAL
  5
46
102
{ACAD_REACTORS
330
43
102
}
102
{ACAD_XDICTIONARY
360
22E
102
}
330
43
100
AcDbMaterial
  1
GLOBAL
  0
ACAD_PROXY_OBJECT
  5
6C
102
{ACAD_REACTORS
330
6B
102
}
330
6B
100
AcDbProxyObject
 90
      499
 91
      505
 93
      610
310
40901902A4063FBFFFFFE056BD1B81E855B9FC0AD7A3703D0AD73F4214DD185B99185C9900AD7A3703D0AC73F90141901A02B5E8DC0F42B1CFC02B5E8DC0F42B1CFE5764000000000000300FC0
340
14
340
0
340
11
340
0
 94
        0
1001
ACAD_MLEADERVER
1070
     2
  0
MLINESTYLE
  5
18
102
{ACAD_REACTORS
330
17
102
}
330
17
100
AcDbMlineStyle
  2
Standard
 70
     0
  3

 62
   256
 51
90.0
 52
90.0
 71
     2
 49
0.5
 62
   256
  6
BYLAYER
 49
-0.5
 62
   256
  6
BYLAYER
  0
ACAD_PROXY_OBJECT
  5
48
102
{ACAD_REACTORS
330
47
102
}
330
47
100
AcDbProxyObject
 90
      499
 91
      503
 93
       41
310
903313A31580
  0
ACAD_PROXY_OBJECT
  5
49
102
{ACAD_REACTORS
330
47
102
}
330
47
100
AcDbProxyObject
 90
      499
 91
      503
 93
      105
310
903313A324000000000000004000
  0
ACAD_PROXY_OBJECT
  5
4A
102
{ACAD_REACTORS
330
47
102
}
330
47
100
AcDbProxyObject
 90
      499
 91
      503
 93
      105
310
903313A344000000000000104000
  0
ACAD_PROXY_OBJECT
  5
4B
102
{ACAD_REACTORS
330
47
102
}
330
47
100
AcDbProxyObject
 90
      499
 91
      503
 93
      105
310
903313A354000000000000144000
  0
ACAD_PROXY_OBJECT
  5
4C
102
{ACAD_REACTORS
330
47
102
}
330
47
100
AcDbProxyObject
 90
      499
 91
      503
 93
      105
310
903313A384000000000000204000
  0
ACAD_PROXY_OBJECT
  5
4D
102
{ACAD_REACTORS
330
47
102
}
330
47
100
AcDbProxyObject
 90
      499
 91
      503
 93
      113
310
904313A31304000000000000244000
  0
ACAD_PROXY_OBJECT
  5
4E
102
{ACAD_REACTORS
330
47
102
}
330
47
100
AcDbProxyObject
 90
      499
 91
      503
 93
      113
310
904313A31364000000000000304000
  0
ACAD_PROXY_OBJECT
  5
4F
102
{ACAD_REACTORS
330
47
102
}
330
47
100
AcDbProxyObject
 90
      499
 91
      503
 93
      113
310
904313A32304000000000000344000
  0
ACAD_PROXY_OBJECT
  5
50
102
{ACAD_REACTORS
330
47
102
}
330
47
100
AcDbProxyObject
 90
      499
 91
      503
 93
      113
310
904313A333040000000000003E4000
  0
ACAD_PROXY_OBJECT
  5
51
102
{ACAD_REACTORS
330
47
102
}
330
47
100
AcDbProxyObject
 90
      499
 91
      503
 93
      113
310
904313A34304000000000000444000
  0
ACAD_PROXY_OBJECT
  5
52
102
{ACAD_REACTORS
330
47
102
}
330
47
100
AcDbProxyObject
 90
      499
 91
      503
 93
      113
310
904313A35304000000000000494000
  0
ACAD_PROXY_OBJECT
  5
53
102
{ACAD_REACTORS
330
47
102
}
330
47
100
AcDbProxyObject
 90
      499
 91
      503
 93
      121
310
905313A3130304000000000000594000
  0
ACAD_PROXY_OBJECT
  5
54
102
{ACAD_REACTORS
330
47
102
}
330
47
100
AcDbProxyObject
 90
      499
 91
      503
 93
      105
310
903323A310000000000000010100
  0
ACAD_PROXY_OBJECT
  5
55
102
{ACAD_REACTORS
330
47
102
}
330
47
100
AcDbProxyObject
 90
      499
 91
      503
 93
      105
310
903343A310000000000000410100
  0
ACAD_PROXY_OBJECT
  5
56
102
{ACAD_REACTORS
330
47
102
}
330
47
100
AcDbProxyObject
 90
      499
 91
      503
 93
      105
310
903383A310000000000000810100
  0
ACAD_PROXY_OBJECT
  5
57
102
{ACAD_REACTORS
330
47
102
}
330
47
100
AcDbProxyObject
 90
      499
 91
      503
 93
      113
310
90431303A310000000000000910100
  0
ACAD_PROXY_OBJECT
  5
58
102
{ACAD_REACTORS
330
47
102
}
330
47
100
AcDbProxyObject
 90
      499
 91
      503
 93
      121
310
9053130303A310000000000001650100
  0
ACAD_PROXY_OBJECT
  5
59
102
{ACAD_REACTORS
330
47
102
}
330
47
100
AcDbProxyObject
 90
      499
 91
      503
 93
      257
310
90E312F31323822203D2031272D3022000000000000200FC000000000000284000
  0
ACAD_PROXY_OBJECT
  5
5A
102
{ACAD_REACTORS
330
47
102
}
330
47
100
AcDbProxyObject
 90
      499
 91
      503
 93
      249
310
90D312F363422203D2031272D3022000000000000240FC000000000000284000
  0
ACAD_PROXY_OBJECT
  5
5B
102
{ACAD_REACTORS
330
47
102
}
330
47
100
AcDbProxyObject
 90
      499
 91
      503
 93
      249
310
90D312F333222203D2031272D3022000000000000280FC000000000000284000
  0
ACAD_PROXY_OBJECT
  5
5C
102
{ACAD_REACTORS
330
47
102
}
330
47
100
AcDbProxyObject
 90
      499
 91
      503
 93
      249
310
90D312F313622203D2031272D30220000000000002C0FC000000000000284000
  0
ACAD_PROXY_OBJECT
  5
5D
102
{ACAD_REACTORS
330
47
102
}
330
47
100
AcDbProxyObject
 90
      499
 91
      503
 93
      249
310
90D332F333222203D2031272D30220000000000002E0FC000000000000284000
  0
ACAD_PROXY_OBJECT
  5
5E
102
{ACAD_REACTORS
330
47
102
}
330
47
100
AcDbProxyObject
 90
      499
 91
      503
 93
      241
310
90C312F3822203D2031272D3022000000000000300FC000000000000284000
  0
ACAD_PROXY_OBJECT
  5
5F
102
{ACAD_REACTORS
330
47
102
}
330
47
100
AcDbProxyObject
 90
      499
 91
      503
 93
      249
310
90D332F313622203D2031272D3022000000000000320FC000000000000284000
  0
ACAD_PROXY_OBJECT
  5
60
102
{ACAD_REACTORS
330
47
102
}
330
47
100
AcDbProxyObject
 90
      499
 91
      503
 93
      241
310
90C312F3422203D2031272D3022000000000000340FC000000000000284000
  0
ACAD_PROXY_OBJECT
  5
61
102
{ACAD_REACTORS
330
47
102
}
330
47
100
AcDbProxyObject
 90
      499
 91
      503
 93
      241
310
90C332F3822203D2031272D3022000000000000360FC000000000000284000
  0
ACAD_PROXY_OBJECT
  5
62
102
{ACAD_REACTORS
330
47
102
}
330
47
100
AcDbProxyObject
 90
      499
 91
      503
 93
      241
310
90C312F3222203D2031272D3022000000000000380FC000000000000284000
  0
ACAD_PROXY_OBJECT
  5
63
102
{ACAD_REACTORS
330
47
102
}
330
47
100
AcDbProxyObject
 90
      499
 91
      503
 93
      241
310
90C332F3422203D2031272D30220000000000003A0FC000000000000284000
  0
ACAD_PROXY_OBJECT
  5
64
102
{ACAD_REACTORS
330
47
102
}
330
47
100
AcDbProxyObject
 90
      499
 91
      503
 93
      161
310
90A3122203D2031272D30224000000000000284000
  0
ACAD_PROXY_OBJECT
  5
65
102
{ACAD_REACTORS
330
47
102
}
330
47
100
AcDbProxyObject
 90
      499
 91
      503
 93
      257
310
90E312D312F3222203D2031272D30220000000000003E0FC000000000000284000
  0
ACAD_PROXY_OBJECT
  5
66
102
{ACAD_REACTORS
330
47
102
}
330
47
100
AcDbProxyObject
 90
      499
 91
      503
 93
      225
310
90A3322203D2031272D302200000000000002100000000000000284000
  0
ACAD_PROXY_OBJECT
  5
67
102
{ACAD_REACTORS
330
47
102
}
330
47
100
AcDbProxyObject
 90
      499
 91
      503
 93
      225
310
90A3622203D2031272D302200000000000006100000000000000284000
  0
ACAD_PROXY_OBJECT
  5
68
102
{ACAD_REACTORS
330
47
102
}
330
47
100
AcDbProxyObject
 90
      499
 91
      503
 93
      249
310
90D31272D3022203D2031272D30220000000000000A100000000000000284000
  0
ACAD_PROXY_OBJECT
  5
2F
102
{ACAD_REACTORS
330
2A
102
}
330
2A
100
AcDbProxyObject
 90
      499
 91
      501
 93
      436
310
42CC9915DA5C99599C985B595049028333333333333E33F0000000000000F90107901411070040501600405405064090741402480A0340
1001
ACAD
1000
AcDbSavedByObjectVersion
1070
     0
  0
ACAD_PROXY_OBJECT
  5
32
102
{ACAD_REACTORS
330
2A
102
}
330
2A
100
AcDbProxyObject
 90
      499
 91
      501
 93
      388
310
4150985CDA58D07406404333333333333E33F0000000000000F90107A41107004050150841D405064090741402480A0350
1001
ACAD
1000
AcDbSavedByObjectVersion
1070
     0
  0
ACAD_PROXY_OBJECT
  5
36
102
{ACAD_REACTORS
330
2A
102
}
330
2A
100
AcDbProxyObject
 90
      499
 91
      501
 93
      428
310
42109C9A59DA1D195B90C409028333333333333E33F0000000000000F9010790141107004050150841D405064090741402480A029950
1001
ACAD
1000
AcDbSavedByObjectVersion
1070
     0
  0
ACAD_PROXY_OBJECT
  5
3A
102
{ACAD_REACTORS
330
2A
102
}
330
2A
100
AcDbProxyObject
 90
      499
 91
      501
 93
      452
310
42D0DBDB1BDC90DA185B99D95104090240C333333333333E33F0000000000000F90108901411070040501508421405064090741402480A0350
1001
ACAD
1000
AcDbSavedByObjectVersion
1070
     0
  0
ACAD_PROXY_OBJECT
  5
34
102
{ACAD_REACTORS
330
2A
102
}
330
2A
100
AcDbProxyObject
 90
      499
 91
      501
 93
      500
310
4290DBDB98D95C1D1D585B10940D028333333333333E33F0000000000000F90107902409070040501000000000018199010841D405064090740C02480A0340
1001
ACAD
1000
AcDbSavedByObjectVersion
1070
     0
  0
ACAD_PROXY_OBJECT
  5
35
102
{ACAD_REACTORS
330
2A
102
}
330
2A
100
AcDbProxyObject
 90
      499
 91
      501
 93
      412
310
40D11A5B50B409028333333333333E33F0000000000000F9010790141107004050150841D405064090741402480A02677FFFFFD0
1001
ACAD
1000
AcDbSavedByObjectVersion
1070
     0
  0
ACAD_PROXY_OBJECT
  5
3D
102
{ACAD_REACTORS
330
2A
102
}
330
2A
100
AcDbProxyObject
 90
      499
 91
      501
 93
      452
310
43115919D950DBDB1BDC93D999916409028333333333333E33F0000000000000F9010790141107004050150841D405064090741402480A0350
1001
ACAD
1000
AcDbSavedByObjectVersion
1070
     0
  0
ACAD_PROXY_OBJECT
  5
39
102
{ACAD_REACTORS
330
2A
102
}
330
2A
100
AcDbProxyObject
 90
      499
 91
      501
 93
      444
310
42D19858D95C185D1D195C9B90F409028333333333333E33F0000000000000F9010790141107004050150841D405064090741402480A0350
1001
ACAD
1000
AcDbSavedByObjectVersion
1070
     0
  0
ACAD_PROXY_OBJECT
  5
2B
102
{ACAD_REACTORS
330
2A
102
}
330
2A
100
AcDbProxyObject
 90
      499
 91
      501
 93
      380
310
41119B185D240901404333333333333E33F0000000000000F9010740A907004050150841D405064090741402480A1B50
1001
ACAD
1000
AcDbSavedByObjectVersion
1070
     0
  0
ACAD_PROXY_OBJECT
  5
2C
102
{ACAD_REACTORS
330
2A
102
}
330
2A
100
AcDbProxyObject
 90
      499
 91
      501
 93
      468
310
43519B185D15DA5D1A115919D95CD0140901404333333333333E33F0000000000000F90107409019070040501600405405064090741402480A1B50
1001
ACAD
1000
AcDbSavedByObjectVersion
1070
     0
  0
ACAD_PROXY_OBJECT
  5
2D
102
{ACAD_REACTORS
330
2A
102
}
330
2A
100
AcDbProxyObject
 90
      499
 91
      501
 93
      404
310
41D1DBDD5C985D5910240902404333333333333E33F0000000000000F9010740A9070040501641D405064090741402480A1B50
1001
ACAD
1000
AcDbSavedByObjectVersion
1070
     0
  0
ACAD_PROXY_OBJECT
  5
2E
102
{ACAD_REACTORS
330
2A
102
}
330
2A
100
AcDbProxyObject
 90
      499
 91
      501
 93
      492
310
4411DBDD5C985D5915DA5D1A115919D95CD0340902404333333333333E33F0000000000000F90107409019070040501600405405064090741402480A1B50
1001
ACAD
1000
AcDbSavedByObjectVersion
1070
     0
  0
ACAD_PROXY_OBJECT
  5
31
102
{ACAD_REACTORS
330
2A
102
}
330
2A
100
AcDbProxyObject
 90
      499
 91
      501
 93
      476
310
41921A5919195B90640502408333333333333E33F0000000000000F901079024090700405020000000000001110200405405064090740C02480A0340
1001
ACAD
1000
AcDbSavedByObjectVersion
1070
     0
  0
ACAD_PROXY_OBJECT
  5
3B
102
{ACAD_REACTORS
330
2A
102
}
330
2A
100
AcDbProxyObject
 90
      499
 91
      501
 93
      428
310
42529A5D1D195C93D999914409028333333333333E33F0000000000000F9010790141107004050150A41D405064090741402480A0350
1001
ACAD
1000
AcDbSavedByObjectVersion
1070
     0
  0
ACAD_PROXY_OBJECT
  5
38
102
{ACAD_REACTORS
330
2A
102
}
330
2A
100
AcDbProxyObject
 90
      499
 91
      501
 93
      444
310
42D31A5B995C185D1D195C9B90E409028333333333333E33F0000000000000F9010790141107004050750841D405064090741402483A0350
1001
ACAD
1000
AcDbSavedByObjectVersion
1070
     0
  0
ACAD_PROXY_OBJECT
  5
3C
102
{ACAD_REACTORS
330
2A
102
}
330
2A
100
AcDbProxyObject
 90
      499
 91
      501
 93
      444
310
42D3DD995C9A185B99D3D999915409028333333333333E33F0000000000000F9010790141107004050150941D405064090741402480A0350
1001
ACAD
1000
AcDbSavedByObjectVersion
1070
     0
  0
ACAD_PROXY_OBJECT
  5
33
102
{ACAD_REACTORS
330
2A
102
}
330
2A
100
AcDbProxyObject
 90
      499
 91
      501
 93
      428
310
425499585B1A5CDD1A58D08409038333333333333E33F0000000000000F9010740A907004050150800405405064090740C02480A1B40
1001
ACAD
1000
AcDbSavedByObjectVersion
1070
     0
  0
ACAD_PROXY_OBJECT
  5
42
102
{ACAD_REACTORS
330
2A
102
}
330
2A
100
AcDbProxyObject
 90
      499
 91
      501
 93
      420
310
4194DA1859195911B40902404333333333333E33F0000000000000F9010740A41107004050150800405405064090840C02480A0B40
1001
ACAD
1000
AcDbSavedByObjectVersion
1070
     0
  0
ACAD_PROXY_OBJECT
  5
41
102
{ACAD_REACTORS
330
2A
102
}
330
2A
100
AcDbProxyObject
 90
      499
 91
      501
 93
      516
310
4454DA18591959081DDA5D1A08195919D95CD1A40902404333333333333E33F0000000000000F901074090142907004050250800405405064090740C02480A0B40
1001
ACAD
1000
AcDbSavedByObjectVersion
1070
     0
  0
ACAD_PROXY_OBJECT
  5
3E
102
{ACAD_REACTORS
330
2A
102
}
330
2A
100
AcDbProxyObject
 90
      499
 91
      501
 93
      532
310
4394DA1859195CC81BD98811DC985E5174090240C333333333333E33F0000000000000F901079024090741D01000000000000111010841D405064090740C02480A0340
1001
ACAD
1000
AcDbSavedByObjectVersion
1070
     0
  0
ACAD_PROXY_OBJECT
  5
3F
102
{ACAD_REACTORS
330
2A
102
}
330
2A
100
AcDbProxyObject
 90
      499
 91
      501
 93
      476
310
41D4DAD95D18DA1E51840502408333333333333E33F0000000000000F901079024090741D01000000000000111010B41D405064090741802480A0340
1001
ACAD
1000
AcDbSavedByObjectVersion
1070
     0
  0
ACAD_PROXY_OBJECT
  5
37
102
{ACAD_REACTORS
330
2A
102
}
330
2A
100
AcDbProxyObject
 90
      499
 91
      501
 93
      412
310
41D51A1A58DAD95B90D409028333333333333E33F0000000000000F9010790141107004050150C41D405064090741402480A0350
1001
ACAD
1000
AcDbSavedByObjectVersion
1070
     0
  0
ACAD_PROXY_OBJECT
  5
30
102
{ACAD_REACTORS
330
2A
102
}
330
2A
100
AcDbProxyObject
 90
      499
 91
      501
 93
      420
310
4255DA5C99599C985B595059028333333333333E33F0000000000000F90107901411070040501600405405064090740C02480A0340
1001
ACAD
1000
AcDbSavedByObjectVersion
1070
     0
  0
ACAD_PROXY_OBJECT
  5
40
102
{ACAD_REACTORS
330
2A
102
}
330
2A
100
AcDbProxyObject
 90
      499
 91
      501
 93
      404
310
41560B54985E51940902404000000000000E03F0000000000000F9010740501907004050150841D405064090740C02480A1B40
1001
ACAD
1000
AcDbSavedByObjectVersion
1070
     0
  0
XRECORD
  5
208
102
{ACAD_REACTORS
330
1FE
102
}
330
1FE
100
AcDbXrecord
340
0
  0
XRECORD
  5
207
102
{ACAD_REACTORS
330
1FE
102
}
330
1FE
100
AcDbXrecord
 90
        0
  0
XRECORD
  5
21E
102
{ACAD_REACTORS
330
1FE
102
}
330
1FE
100
AcDbXrecord
1000
DSTYLE
1002
{
1070
   171
 70
     2
1070
   143
 40
25.4
1070
   274
 70
     2
1070
    41
 40
0.18
1070
   141
 40
0.09
1070
   271
 70
     4
1070
    43
 40
0.38
1070
   278
 70
    46
1070
    44
 40
0.18
1070
    42
 40
0.0625
1070
   147
 40
0.09
1070
    77
 70
     0
1070
   272
 70
     4
1070
    73
 70
     1
1070
   172
 70
     0
1070
    74
 70
     1
1070
   283
 70
     1
1070
   340
340
11
1070
   140
 40
0.18
1070
   284
 70
     0
1070
    78
 70
     0
1002
}
  0
XRECORD
  5
209
102
{ACAD_REACTORS
330
1FE
102
}
330
1FE
100
AcDbXrecord
  1
{387cca32-205b-493e-afef-b6949c5970a4}
  0
XRECORD
  5
201
102
{ACAD_REACTORS
330
1FE
102
}
330
1FE
100
AcDbXrecord
  1

  0
XRECORD
  5
206
102
{ACAD_REACTORS
330
1FE
102
}
330
1FE
100
AcDbXrecord
 90
        4
  0
XRECORD
  5
203
102
{ACAD_REACTORS
330
1FE
102
}
330
1FE
100
AcDbXrecord
340
1A
  0
XRECORD
  5
205
102
{ACAD_REACTORS
330
1FE
102
}
330
1FE
100
AcDbXrecord
 90
    10781
  0
XRECORD
  5
204
102
{ACAD_REACTORS
330
1FE
102
}
330
1FE
100
AcDbXrecord
340
19
  0
XRECORD
  5
20B
102
{ACAD_REACTORS
330
1FE
102
}
330
1FE
100
AcDbXrecord
 40
0.0
  0
XRECORD
  5
20E
102
{ACAD_REACTORS
330
1FE
102
}
330
1FE
100
AcDbXrecord
340
0
  0
XRECORD
  5
214
102
{ACAD_REACTORS
330
1FE
102
}
330
1FE
100
AcDbXrecord
 10
0.0
 20
0.0
 30
0.0
  0
XRECORD
  5
210
102
{ACAD_REACTORS
330
1FE
102
}
330
1FE
100
AcDbXrecord
 10
0.0
 20
0.0
 30
0.0
  0
XRECORD
  5
213
102
{ACAD_REACTORS
330
1FE
102
}
330
1FE
100
AcDbXrecord
 10
0.0
 20
0.0
 30
0.0
  0
XRECORD
  5
211
102
{ACAD_REACTORS
330
1FE
102
}
330
1FE
100
AcDbXrecord
 10
0.0
 20
0.0
 30
0.0
  0
XRECORD
  5
212
102
{ACAD_REACTORS
330
1FE
102
}
330
1FE
100
AcDbXrecord
 10
0.0
 20
0.0
 30
0.0
  0
XRECORD
  5
20F
102
{ACAD_REACTORS
330
1FE
102
}
330
1FE
100
AcDbXrecord
 10
0.0
 20
0.0
 30
0.0
  0
XRECORD
  5
20C
102
{ACAD_REACTORS
330
1FE
102
}
330
1FE
100
AcDbXrecord
340
0
  0
XRECORD
  5
20D
102
{ACAD_REACTORS
330
1FE
102
}
330
1FE
100
AcDbXrecord
 70
     0
  0
XRECORD
  5
202
102
{ACAD_REACTORS
330
1FE
102
}
330
1FE
100
AcDbXrecord
  1

  0
XRECORD
  5
1FF
102
{ACAD_REACTORS
330
1FE
102
}
330
1FE
100
AcDbXrecord
 90
        1
  0
XRECORD
  5
200
102
{ACAD_REACTORS
330
1FE
102
}
330
1FE
100
AcDbXrecord
 90
       70
  0
XRECORD
  5
217
102
{ACAD_REACTORS
330
1FE
102
}
330
1FE
100
AcDbXrecord
340
0
  0
XRECORD
  5
21D
102
{ACAD_REACTORS
330
1FE
102
}
330
1FE
100
AcDbXrecord
 10
0.0
 20
0.0
 30
0.0
  0
XRECORD
  5
219
102
{ACAD_REACTORS
330
1FE
102
}
330
1FE
100
AcDbXrecord
 10
0.0
 20
0.0
 30
0.0
  0
XRECORD
  5
21C
102
{ACAD_REACTORS
330
1FE
102
}
330
1FE
100
AcDbXrecord
 10
0.0
 20
0.0
 30
0.0
  0
XRECORD
  5
21A
102
{ACAD_REACTORS
330
1FE
102
}
330
1FE
100
AcDbXrecord
 10
0.0
 20
0.0
 30
0.0
  0
XRECORD
  5
21B
102
{ACAD_REACTORS
330
1FE
102
}
330
1FE
100
AcDbXrecord
 10
0.0
 20
0.0
 30
0.0
  0
XRECORD
  5
218
102
{ACAD_REACTORS
330
1FE
102
}
330
1FE
100
AcDbXrecord
 10
0.0
 20
0.0
 30
0.0
  0
XRECORD
  5
215
102
{ACAD_REACTORS
330
1FE
102
}
330
1FE
100
AcDbXrecord
340
0
  0
XRECORD
  5
216
102
{ACAD_REACTORS
330
1FE
102
}
330
1FE
100
AcDbXrecord
 70
     0
  0
XRECORD
  5
20A
102
{ACAD_REACTORS
330
1FE
102
}
330
1FE
100
AcDbXrecord
  1
{FAEB1C32-E019-11D5-929B-00C0DF256EC4}
  0
DICTIONARYVAR
  5
228
102
{ACAD_REACTORS
330
21F
102
}
330
21F
100
DictionaryVariables
280
     0
  1
1:1
  0
DICTIONARYVAR
  5
221
102
{ACAD_REACTORS
330
21F
102
}
330
21F
100
DictionaryVariables
280
     0
  1
Standard
  0
DICTIONARYVAR
  5
220
102
{ACAD_REACTORS
330
21F
102
}
330
21F
100
DictionaryVariables
280
     0
  1
Standard
  0
DICTIONARYVAR
  5
224
102
{ACAD_REACTORS
330
21F
102
}
330
21F
100
DictionaryVariables
280
     0
  1
2
  0
DICTIONARYVAR
  5
225
102
{ACAD_REACTORS
330
21F
102
}
330
21F
100
DictionaryVariables
280
     0
  1
1
  0
DICTIONARYVAR
  5
229
102
{ACAD_REACTORS
330
21F
102
}
330
21F
100
DictionaryVariables
280
     0
  1
1
  0
DICTIONARY
  5
22C
330
45
100
AcDbDictionary
280
     1
  3
ACAD_XREC_ROUNDTRIP
360
22D
  0
DICTIONARY
  5
22A
330
44
100
AcDbDictionary
280
     1
  3
ACAD_XREC_ROUNDTRIP
360
22B
  0
DICTIONARY
  5
22E
330
46
100
AcDbDictionary
280
     1
  3
ACAD_XREC_ROUNDTRIP
360
22F
  0
XRECORD
  5
22D
102
{ACAD_REACTORS
330
22C
102
}
330
22C
100
AcDbXrecord
102
MATERIAL
148
0.0
149
0.0
149
0.0
 93
        0
 94
      127
282
     0
 72
     1
 77
     1
171
     1
175
     1
179
     1
273
     0
  0
XRECORD
  5
22B
102
{ACAD_REACTORS
330
22A
102
}
330
22A
100
AcDbXrecord
102
MATERIAL
148
0.0
149
0.0
149
0.0
 93
        0
 94
      127
282
     0
 72
     1
 77
     1
171
     1
175
     1
179
     1
273
     0
  0
XRECORD
  5
22F
102
{ACAD_REACTORS
330
22E
102
}
330
22E
100
AcDbXrecord
102
MATERIAL
148
0.0
149
0.0
149
0.0
 93
        0
 94
      127
282
     0
 72
     1
 77
     1
171
     1
175
     1
179
     1
273
     0
  0
ENDSEC
  0
EOF
